<svg id="Capa_1" data-name="Capa 1" xmlns="http://www.w3.org/2000/svg" viewBox="0 0 100 100"><defs><style>.cls-1{fill:#fff;stroke:#fff;stroke-miterlimit:10;stroke-width:5px;}</style></defs><path class="cls-1" d="M50,88.87c-2.15,0-3.89-1.22-3.89-2.72V9.42c0-1.5,1.74-2.72,3.89-2.72s3.9,1.22,3.9,2.72V86.15C53.9,87.65,52.15,88.87,50,88.87Z"/><path class="cls-1" d="M6.58,42.59a5.78,5.78,0,0,1,6.24,1L50,84.27,87.18,43.56a5.8,5.8,0,0,1,6.25-1c2.1.93,2.71,2.9,1.39,4.36l-41,44.89a5.71,5.71,0,0,1-7.63,0L5.19,47a2.52,2.52,0,0,1-.71-1.69A3.1,3.1,0,0,1,6.58,42.59Z"/></svg>