<svg id="Capa_2" data-name="Capa 2" xmlns="http://www.w3.org/2000/svg" viewBox="0 0 1000 1000"><defs><style>.cls-1{fill:#fff;}.cls-2{fill:#b5b5b5;}.cls-3{fill:#ddd;}.cls-4{fill:#371a45;}.cls-5{opacity:0.2;}.cls-6{fill:#56bfdb;}.cls-7{fill:#50d1ef;}.cls-8{fill:#56a9f4;}.cls-9{fill:#fdeaf6;}.cls-10{fill:#39a1ff;}.cls-11{fill:#d8d8d8;}.cls-12{fill:#220f2d;}.cls-13{opacity:0.5;}.cls-14{fill:#787a75;}.cls-15{opacity:0.6;}.cls-16{opacity:0.4;}</style></defs><path class="cls-1" d="M872.69,431C866.67,1087.44-86,873.4,171.45,316a647.4,647.4,0,0,0,27.64,79.52c130.93,306.9,436,263.74,602.75,74.68v0a469.26,469.26,0,0,0,44.53-59.25,16.06,16.06,0,0,1,7.21-6.29q10.42-4.34,16.2,10.28A42.49,42.49,0,0,1,872.69,431Z"/><path class="cls-2" d="M148,389.15l51.11,6.33c130.93,306.9,436,263.74,602.75,74.68C807.75,1032.35,9.67,842.21,148,389.15Z"/><path class="cls-3" d="M604.93,776.21a10.38,10.38,0,0,1-3.29,7.43C591.3,794.28,560,797,531.77,789.77S489,768,499.3,757.35c4.26-4.39,12.08-7.44,21.79-9,0,9.21,13.71,19.31,35.77,25C573.47,777.62,591.1,778.43,604.93,776.21Z"/><path class="cls-3" d="M371.11,745.15a17,17,0,0,1-4.71,2.51c-8,2.75-16.46-.83-18.92-8a13,13,0,0,1,1.3-11,34.09,34.09,0,0,1,15.65-7.21,35,35,0,0,0-5.68,3.78,13,13,0,0,0-1.3,11C359.37,741.83,365,745.24,371.11,745.15Z"/><path class="cls-3" d="M828.31,464.31c-6.34,5.62-8.77,15.1-9.74,26,.11.54.24,1.06.38,1.58-3.65-1.45-6.14-5.17-7.1-9.95,1-10.91,3.4-20.39,9.74-26,3.09-2.15,6.49-3,9.65-2,3.63,1.09,6.22,4.32,7.45,8.63a5.73,5.73,0,0,0-.73-.26C834.8,461.33,831.4,462.16,828.31,464.31Z"/><path class="cls-3" d="M791.84,594.68c-6.36,17.28-7.44,33.47-3.86,44.08-14.12-3.86-17.43-28.61-7.28-56.18,5.95-16.14,15.22-29.74,24.87-37.88,12.84-8.05,28.59-2.8,33.86,10.55a23.24,23.24,0,0,0-22.72,1.55C807.06,564.94,797.79,578.54,791.84,594.68Z"/><path class="cls-3" d="M242.62,653.06c11.29,14.55,24.45,24,35.34,26.61-10.74,9.94-33.49-.36-51.5-23.57-10.55-13.59-17.18-28.66-19-41.15,0-15.15,12.75-25.73,26.87-23.14a23.22,23.22,0,0,0-10.71,20.1C225.44,624.4,232.07,639.47,242.62,653.06Z"/><path class="cls-3" d="M158.29,468.67a9.82,9.82,0,0,1-3.52,2.11c-6.09,2.1-13-2-15.48-9.16a14.81,14.81,0,0,1,.22-10.64,20.2,20.2,0,0,1,11.79-5.88,21.84,21.84,0,0,0-4.19,3.26,14.87,14.87,0,0,0-.23,10.64C148.81,464.58,153.46,468.31,158.29,468.67Z"/><path class="cls-4" d="M506.15,841.73c-110.66,0-222.33-43.63-296.62-122.46-45.71-48.51-74.7-108.3-83.82-172.91-10.27-72.64,3.64-150.84,41.32-232.44a4.87,4.87,0,0,1,9.12.73C224,486.31,322.68,591.52,453.93,610.92a295.56,295.56,0,0,0,43.19,3.13c128.39,0,265.36-80,345.14-205.77a20.79,20.79,0,0,1,9.44-8.18,14.67,14.67,0,0,1,11.65-.31c4.6,1.94,8.18,6.28,11,13.29a47.08,47.08,0,0,1,3.25,18c-.91,100.2-23.65,185.34-67.57,253.07A338.38,338.38,0,0,1,648.44,815.63C603.4,833.26,554.86,841.72,506.15,841.73ZM170.46,330.09c-86.18,198.2-8.61,324.36,46.17,382.49C289.08,789.46,398,832,506,832c47.57,0,94.92-8.26,138.89-25.48C727.15,774.33,865.51,682.69,867.81,431a37.38,37.38,0,0,0-2.56-14.27c-1.69-4.27-3.71-7.07-5.68-7.9-.71-.3-1.91-.59-4.11.32a11,11,0,0,0-5,4.41C806.81,482.36,743.9,540.78,673.35,578c-72.81,38.42-149.17,53.14-220.84,42.55-63.89-9.44-120.41-38.28-168-85.7C234.54,485.11,196.21,416.26,170.46,330.09Z"/><path class="cls-1" d="M334.8,518l-52.6,50.54A26.44,26.44,0,0,0,277,599.66c43.15,84,181.11,179.62,248.91,103.6l68.56-75.43Z"/><path class="cls-1" d="M507.88,718.57c21-26,16.54-50.94-24.08-74.35L399.18,613a138.45,138.45,0,0,1-49.88-32c-20-20-39.64-32.18-58-21.14"/><path class="cls-4" d="M462.41,735.84a115.76,115.76,0,0,1-14.78-1c-70.54-9-145.77-76-175-133a31.51,31.51,0,0,1,6.2-36.87l52.61-50.54a4.86,4.86,0,0,1,5.27-1L596.32,623.34a4.87,4.87,0,0,1,1.71,7.77l-68.56,75.42C512.25,725.85,489.27,735.84,462.41,735.84ZM335.87,523.73,285.58,572a21.71,21.71,0,0,0-4.29,25.39c28.23,55,102.3,119.44,167.58,127.77,30.32,3.87,55-4.6,73.35-25.19l64-70.37Z"/><path class="cls-4" d="M507.88,723.45a4.87,4.87,0,0,1-3.79-7.94c9.07-11.23,12.59-21.43,10.78-31.16-2.29-12.26-13.44-24.27-33.15-35.7l-84.23-31.12a144.32,144.32,0,0,1-51.64-33.12c-22.34-22.32-38.4-28.62-52.08-20.41a4.88,4.88,0,0,1-5-8.36c23.58-14.15,47.81,5.71,64,21.87a134.6,134.6,0,0,0,48.13,30.88l84.62,31.26a4.52,4.52,0,0,1,.74.35c22.83,13.16,35.34,27.08,38.22,42.56,2.34,12.53-2,25.67-12.77,39.07A4.86,4.86,0,0,1,507.88,723.45Z"/><g class="cls-5"><path class="cls-4" d="M594.42,627.83l-68.56,75.43a84,84,0,0,1-18,15.32c21-26,16.53-50.94-24.08-74.35L399.17,613a138.56,138.56,0,0,1-49.87-32c-20-20-39.63-32.19-58-21.15L334.8,518Z"/></g><g class="cls-5"><path class="cls-4" d="M339.68,571.62c75.57,71.3-42.05,97.42-58.51,0-20.54,10-14.19,36.91,64.59,109.25,48.35,35.81,93.58,56.64,132.8,48.79-42.84-13.44-17.6-75.16,18.66-72.11C460.22,621.59,358,611.84,339.68,571.62Z"/></g><path class="cls-1" d="M525.86,407.75c9.79-36.84,25.25-32.2,60.16-9.21Z"/><polygon class="cls-1" points="572.51 430.79 676.13 470.15 655.85 556.38 540.39 518.28 572.51 430.79"/><g class="cls-5"><polygon class="cls-4" points="572.51 430.79 676.13 470.15 655.85 556.38 540.39 518.28 572.51 430.79"/></g><path class="cls-4" d="M525.86,412.63a4.87,4.87,0,0,1-4.71-6.13c4.52-17,10.4-26.08,19.05-29.38,11.8-4.5,26.14,2.63,48.5,17.35a4.88,4.88,0,0,1-1.94,8.89l-60.16,9.21A4.62,4.62,0,0,1,525.86,412.63Zm21.8-27.08a11,11,0,0,0-4,.68c-4.23,1.61-7.83,6.72-10.91,15.53l39.67-6.08C562,389.34,553.7,385.55,547.66,385.55Z"/><path class="cls-1" d="M702.9,579.15A59.51,59.51,0,0,1,662,547.57c-12-24.2-11.42-50.43-6.14-77.42L614,455.89l-11.8-4,12.28-16.18,14.78-19.47,13.88-18.28c58.57-18.8,110.31-9.18,110.31,46.45,32.18-6.44,48.75,11.19,52,35.75C811.59,525.35,772.56,594,702.9,579.15Z"/><path class="cls-4" d="M721.79,586.07a95,95,0,0,1-19.91-2.16,64.75,64.75,0,0,1-44.25-34.17c-10.44-21.09-12.79-45.43-7.34-76.34l-49.63-16.92a4.88,4.88,0,0,1-2.31-7.57L639.3,395a4.79,4.79,0,0,1,2.39-1.69c40.76-13.09,74.59-12,95.28,3.11,12.91,9.41,20,23.62,21.22,42.28,19.3-2.36,34.79,3.82,44,17.7,14.68,22.15,10.59,61.11-9.52,90.62C775.32,572.43,750.18,586.07,721.79,586.07ZM610.2,449.43l47.23,16.1a4.88,4.88,0,0,1,3.21,5.55c-6.08,31.12-4.31,54.05,5.73,74.33a54.93,54.93,0,0,0,37.55,29c32.33,6.91,61.73-5.07,80.67-32.87,18-26.42,22.07-60.71,9.45-79.75-7.85-11.85-21.55-16.21-39.6-12.6a4.84,4.84,0,0,1-4-1,4.89,4.89,0,0,1-1.79-3.77c0-18.2-5.85-31.69-17.38-40.11-17.61-12.84-48.57-13.61-85.1-2.16Z"/><path class="cls-4" d="M655.85,475a4.66,4.66,0,0,1-1.5-.24,4.87,4.87,0,0,1-3.14-6.13c8.13-25.13,18.15-43.11,30.65-55,14.68-13.93,33.16-19.5,54.93-16.59a4.88,4.88,0,0,1-1.3,9.67c-35.81-4.81-58.93,15.21-75,64.89A4.87,4.87,0,0,1,655.85,475Z"/><path class="cls-4" d="M700.06,473.45A4.87,4.87,0,0,1,697,464.8c18.4-15.05,37.27-23.55,56.06-25.28a4.88,4.88,0,1,1,.89,9.71c-16.82,1.55-33.91,9.33-50.78,23.12A4.87,4.87,0,0,1,700.06,473.45Z"/><path class="cls-4" d="M731.34,582.87a38.11,38.11,0,0,1-24-7.91c-10.72-8.44-15.89-22.4-14.55-39.29,1.28-16.17,8.43-33.25,20.13-48.12s26.64-25.82,42.05-30.86c16.1-5.28,30.88-3.53,41.61,4.92S812.44,484,811.1,500.9c-1.28,16.16-8.43,33.25-20.13,48.11h0c-11.7,14.86-26.63,25.83-42,30.87A56.64,56.64,0,0,1,731.34,582.87Zm41.13-119.41A47,47,0,0,0,758,466c-13.6,4.45-26.89,14.27-37.41,27.63s-16.95,28.59-18.08,42.86c-1.07,13.54,2.79,24.5,10.87,30.86s19.64,7.54,32.54,3.31c13.61-4.45,26.89-14.26,37.41-27.63h0c10.53-13.37,17-28.59,18.08-42.86,1.07-13.53-2.78-24.49-10.87-30.85A28.55,28.55,0,0,0,772.47,463.46Z"/><path class="cls-4" d="M806.27,504.93a4.92,4.92,0,0,1-2-.42l-67.67-29.9a4.88,4.88,0,0,1,4-8.92l67.66,29.9a4.88,4.88,0,0,1-2,9.34Z"/><path class="cls-4" d="M796.69,536.27a4.9,4.9,0,0,1-1.82-.35l-84.75-34.21a4.87,4.87,0,0,1,3.64-9l84.76,34.2a4.88,4.88,0,0,1-1.83,9.4Z"/><path class="cls-4" d="M772.44,567.3a5,5,0,0,1-1.88-.37l-74.27-31a4.88,4.88,0,0,1,3.76-9l74.27,31a4.87,4.87,0,0,1-1.88,9.37Z"/><g class="cls-5"><path class="cls-4" d="M702.9,579.15A59.51,59.51,0,0,1,662,547.57c-12-24.2-11.42-50.43-6.14-77.42L614,455.89l.48-20.21,14.78-19.47h57q-3.54,69.33,45.86,53.94c27.26-5.73,52.09-3.58,73.36,10C811.59,525.35,772.56,594,702.9,579.15Z"/></g><polygon class="cls-1" points="554.81 531.39 644.4 451.86 647.45 424.74 579.95 416.21 490.63 500.05 554.81 531.39"/><g class="cls-5"><polygon class="cls-4" points="546.28 527.74 635.87 448.21 638.91 421.09 571.41 412.55 482.1 496.39 546.28 527.74"/></g><path class="cls-4" d="M554.81,536.27a4.76,4.76,0,0,1-2.14-.5l-64.18-31.34a4.87,4.87,0,0,1-1.2-7.93l89.32-83.84a4.86,4.86,0,0,1,3.95-1.29l67.5,8.54a4.87,4.87,0,0,1,4.23,5.38l-3,27.12a4.83,4.83,0,0,1-1.61,3.1L558.05,535A4.87,4.87,0,0,1,554.81,536.27Zm-55.69-37.5L554,525.58l85.74-76.12,2.3-20.48-60.45-7.64Z"/><path class="cls-4" d="M576.2,517.28a4.87,4.87,0,0,1-4.83-4.25l-3.7-28.55a4.86,4.86,0,0,1,1.82-4.45l74.94-59.12a4.88,4.88,0,0,1,6,7.66L577.7,486,581,511.78a4.88,4.88,0,0,1-4.21,5.46A4.54,4.54,0,0,1,576.2,517.28Z"/><path class="cls-6" d="M567.36,327.78l24,111a8.2,8.2,0,0,0,8,6.46h8.83l50.47-28.79a16.17,16.17,0,0,0,7.85-17.12L643.18,279.49,629,278.17a8.58,8.58,0,0,0-5.86,1.63L571,318.09A9.53,9.53,0,0,0,567.36,327.78Z"/><path class="cls-7" d="M658.71,416.47l-48.94,27.91-1.54.88h-8.82a8.19,8.19,0,0,1-8-6.46l-24-111a9.51,9.51,0,0,1,3.65-9.68l52.07-38.3a8.57,8.57,0,0,1,5.87-1.62l14.22,1.32,1.34,6.89,22,113A16.15,16.15,0,0,1,658.71,416.47Z"/><path class="cls-8" d="M658.71,416.47l-48.94,27.91L586.23,335.63a9.54,9.54,0,0,1,3.66-9.68L642,287.66a8,8,0,0,1,2.56-1.28l22,113A16.15,16.15,0,0,1,658.71,416.47Z"/><path class="cls-9" d="M595,330.91l14.43-11.25a5.48,5.48,0,0,1,8.69,3l5.49,22.76a5.46,5.46,0,0,1-2,5.67l-14.15,10.61a5.48,5.48,0,0,1-8.59-3l-5.77-22.13A5.49,5.49,0,0,1,595,330.91Z"/><path class="cls-4" d="M608.24,450.14h-8.83a13.14,13.14,0,0,1-12.77-10.31l-24-111a14.39,14.39,0,0,1,5.54-14.64l52.06-38.3a13.39,13.39,0,0,1,9.2-2.55l14.23,1.32a4.86,4.86,0,0,1,4.33,3.92l23.38,119.85a21,21,0,0,1-10.22,22.3L610.65,449.5A4.83,4.83,0,0,1,608.24,450.14ZM628.16,283a3.63,3.63,0,0,0-2.18.72L573.91,322a4.64,4.64,0,0,0-1.78,4.72h0l24,111a3.34,3.34,0,0,0,3.24,2.62H607l49.34-28.15a11.28,11.28,0,0,0,5.48-12L639.09,284l-10.59-1Z"/><path class="cls-4" d="M608.24,448.92a3.66,3.66,0,0,1-3.57-2.86L579.36,333.13a11.61,11.61,0,0,1,4.17-11.66l57.4-44.86a3.66,3.66,0,0,1,4.5,5.77L588,327.23a4.32,4.32,0,0,0-1.54,4.3l25.32,112.93a3.66,3.66,0,0,1-2.77,4.37A3.7,3.7,0,0,1,608.24,448.92Z"/><path class="cls-4" d="M604.17,365.28a8.08,8.08,0,0,1-2.61-.44,7.9,7.9,0,0,1-5-5.48l-5.77-22.13a7.91,7.91,0,0,1,2.79-8.24L608,317.74a7.91,7.91,0,0,1,12.56,4.39L626,344.89a7.89,7.89,0,0,1-2.94,8.19L608.92,363.7A7.93,7.93,0,0,1,604.17,365.28Zm8.64-44.34a3,3,0,0,0-1.85.64l-14.43,11.25h0a3,3,0,0,0-1.07,3.17l5.77,22.13a3,3,0,0,0,4.76,1.66l14.15-10.61a3,3,0,0,0,1.14-3.14l-5.5-22.77a3,3,0,0,0-1.95-2.16A3,3,0,0,0,612.81,320.94Zm-17.78,10h0Z"/><ellipse class="cls-4" cx="602.23" cy="337.39" rx="4.22" ry="4.64" transform="translate(-55.95 129.28) rotate(-11.71)"/><path class="cls-4" d="M609.85,347.74a4.11,4.11,0,1,1-5.49-2.64A4.31,4.31,0,0,1,609.85,347.74Z"/><path class="cls-1" d="M648.39,351.08a39.19,39.19,0,0,1-8.77-16.93,15.25,15.25,0,0,1,4.21-14.1C657,307,674.22,305.44,686.36,318a38.85,38.85,0,0,1,6.91,43.76c-3,6.21-7.36,11.45-12.33,14.65a17,17,0,0,1-20.29-1.64,26.76,26.76,0,0,1-8.93-16.43A15,15,0,0,0,648.39,351.08Z"/><g class="cls-5"><path class="cls-4" d="M693.27,345.57c-3,6.21-7.36,11.45-12.33,14.66a17,17,0,0,1-20.29-1.65,26.7,26.7,0,0,1-8.93-16.43,15,15,0,0,0-3.33-7.25,42.9,42.9,0,0,1-7.09-11.53,15.17,15.17,0,0,0-1.68,10.78,39.19,39.19,0,0,0,8.77,16.93,15,15,0,0,1,3.33,7.25,26.76,26.76,0,0,0,8.93,16.43,17,17,0,0,0,20.29,1.64c5-3.2,9.31-8.44,12.33-14.65a38.77,38.77,0,0,0,3-25A38.62,38.62,0,0,1,693.27,345.57Z"/></g><path class="cls-4" d="M672,383.88a22.15,22.15,0,0,1-14.54-5.45,31.57,31.57,0,0,1-10.54-19.32,10.16,10.16,0,0,0-2.25-4.9h0a43.69,43.69,0,0,1-9.81-19,20.09,20.09,0,0,1,5.55-18.59c7.89-7.81,17.35-12.1,26.66-12.1h.33c8.39.1,16.16,3.59,22.47,10.11a43.63,43.63,0,0,1,7.79,49.28c-3.44,7.09-8.44,13-14.07,16.62A21.33,21.33,0,0,1,672,383.88Zm-4.93-69.64c-6.73,0-13.75,3.29-19.8,9.28a10.38,10.38,0,0,0-2.88,9.6,34.23,34.23,0,0,0,7.74,14.82h0a19.85,19.85,0,0,1,4.41,9.61,21.81,21.81,0,0,0,7.33,13.53,12.11,12.11,0,0,0,14.44,1.22,31.22,31.22,0,0,0,10.58-12.68,33.85,33.85,0,0,0-6-38.24,21.84,21.84,0,0,0-15.56-7.14Z"/><path class="cls-1" d="M722.27,693.53c-8.85,15.19-31.44,25.94-72.24,21.79a51.78,51.78,0,0,1-33.71-17.46c-11-12.55-18.63-26-25-39.89a23.16,23.16,0,0,0-22.14-13.53c-68.64,3.41-117-2-123.84-25.29l45.31-59.86,35.23-46.56c113.66-1.85,145.35,0,170.55,121.87C721.92,646.22,733.85,673.66,722.27,693.53Z"/><path class="cls-4" d="M666.35,721.06a164.94,164.94,0,0,1-16.81-.89,56.38,56.38,0,0,1-36.89-19.11c-9.89-11.31-18.08-24.36-25.77-41a18.21,18.21,0,0,0-17.48-10.69c-82,4.06-121.72-4.82-128.76-28.79a4.87,4.87,0,0,1,.79-4.32L522,509.79a4.88,4.88,0,0,1,3.8-1.93c59.8-1,94.92-.74,121.07,15.26,25.62,15.66,40.79,46.07,53.84,108.12,22.55,11.4,35.2,35,29.57,55.73C724.34,708.82,700.91,721.06,666.35,721.06Zm-96-81.51a27.93,27.93,0,0,1,25.42,16.38c7.29,15.82,15,28.12,24.25,38.72a46.72,46.72,0,0,0,30.54,15.82c38.55,3.92,64.84-5.82,70.32-26.05,4.58-16.91-6.8-36.42-26.47-45.39a4.89,4.89,0,0,1-2.75-3.45c-12.54-60.67-26.52-89.87-49.86-104.15-23.53-14.39-56.9-14.75-113.45-13.86L450.82,620c7.83,16.53,47.53,23.13,118.1,19.63C569.39,639.56,569.85,639.55,570.32,639.55Z"/><path class="cls-4" d="M580.6,651.75a4.87,4.87,0,0,1-4.14-2.29c-12.91-20.6-11.51-48,3.74-73.15,17.6-29.08,48.14-47.18,76-45a4.87,4.87,0,0,1-.75,9.72c-24.28-1.86-51.2,14.32-66.94,40.33-13.3,22-14.73,45.51-3.82,62.92a4.88,4.88,0,0,1-1.54,6.72A4.79,4.79,0,0,1,580.6,651.75Z"/><path class="cls-4" d="M694.51,639.09c-11.8-6.36-25.81-5.15-37.55,1.35a2.11,2.11,0,0,1-2.21-3.57c8.93-6.52,20.72-10.65,32.13-9.36a49.41,49.41,0,0,1,11.48,2.61c6.4,2.55,2.42,11.86-3.85,9Z"/><g class="cls-5"><path class="cls-4" d="M722.27,693.53c-8.85,15.19-31.44,25.94-72.24,21.79a51.78,51.78,0,0,1-33.71-17.46c-11-12.55-18.63-26-25-39.89a23.16,23.16,0,0,0-22.14-13.53c-68.64,3.41-117-2-123.84-25.29l45.31-59.86c52.69-6,105.11,19.13,157,103.67a60.88,60.88,0,0,0,41.89,28.44A207,207,0,0,0,722.27,693.53Z"/></g><path class="cls-1" d="M511.94,592.74c-2.18,22.9-19,45.34-37.89,59.9-12.8,9.86-26.55,16.1-37.32,16.39A15,15,0,0,1,424,662.92c-1.88-2.65-1.88-4.7-.2-7.37a12.09,12.09,0,0,1,2-2.39,15.94,15.94,0,0,1,1.91-1.57c20.74-14.63,40.54-38.47,60.3-62.91Z"/><path class="cls-4" d="M436.27,673.91A19.8,19.8,0,0,1,420,665.74c-3-4.24-3.11-8.42-.33-12.8a19.09,19.09,0,0,1,5.21-5.34c19.83-14,38.59-36.35,59.31-62a4.91,4.91,0,0,1,4.61-1.75l24,4.07a4.87,4.87,0,0,1,4,5.27c-1.77,18.56-12.88,38.73-30.48,55.36-16.13,15.22-35.08,24.94-49.46,25.34h-.59Zm.46-4.88h0Zm-9.32-9.88a3.38,3.38,0,0,0,.54,1,10,10,0,0,0,8.64,4.06h0c23-.64,63.53-32.89,69.88-67.4L490,594c-20.48,25.29-39.22,47.32-59.48,61.61a9.53,9.53,0,0,0-2.6,2.59,3,3,0,0,0-.48,1Z"/><g class="cls-5"><path class="cls-4" d="M511.94,592.74c-2.18,22.9-19,45.34-37.89,59.9-17.91,2.06-34.42,2.66-48.28.52a15.94,15.94,0,0,1,1.91-1.57c20.74-14.63,40.54-38.47,60.3-62.91Z"/></g><path class="cls-1" d="M507.88,603.31c-1.9,1.66-3.81,3.23-5.72,4.69-66.57,51.29-143.82-3.72-138.33-76.09A97.49,97.49,0,0,1,365.89,518L453,491.6l7,14.31,28,57,19.71,40.17Z"/><path class="cls-4" d="M447.18,633a83.46,83.46,0,0,1-42.88-12c-35-20.72-52.31-62.54-43.18-104.07a4.88,4.88,0,0,1,3.35-3.62l87.15-26.38a4.86,4.86,0,0,1,5.79,2.51l54.85,111.71a4.88,4.88,0,0,1-1.17,5.82C491.32,624.23,469.09,633,447.18,633Zm-77.1-111.23c-6.89,36.49,8.63,72.7,39.19,90.82,29.07,17.22,63.43,13.22,92.56-10.59L450.48,497.47Z"/><path class="cls-4" d="M457.9,491.85c-.62,27.54-19.41,51.21-41.4,66a1.94,1.94,0,0,1-2.5-3c8.72-9.36,16.94-18.95,23.11-29.55a79.94,79.94,0,0,0,11.06-34c.64-6.25,9.7-5.81,9.73.49Z"/><path class="cls-10" d="M508.32,274.25,501.39,286c-21-45.39-62.69-75.12-116.21-95.89a59.8,59.8,0,0,1,78.57-19.64,146.39,146.39,0,0,1,36,28.12c.36.38.72.76,1.07,1.15A63,63,0,0,1,508.32,274.25Z"/><path class="cls-4" d="M501.38,290.87h-.24A4.86,4.86,0,0,1,497,288c-18.71-40.44-55.85-71-113.54-93.39a4.87,4.87,0,0,1-2.31-7.22c18.53-28.1,55.87-37.41,85-21.21a151.65,151.65,0,0,1,38.26,30.23,67.42,67.42,0,0,1,8.14,80.28l-6.94,11.74A4.88,4.88,0,0,1,501.38,290.87Zm-108.51-103c53,21.6,88.76,50.45,108.87,87.88l2.38-4c12.93-21.89,10.08-50.16-6.93-68.74a141.9,141.9,0,0,0-35.81-28.29C438.44,162,409.49,167.91,392.87,187.92Z"/><g class="cls-5"><path class="cls-4" d="M508.32,274.25,501.39,286c-21-45.39-62.69-75.12-116.21-95.89a59.9,59.9,0,0,1,15.1-15.72c32,11.48,60.81,23.07,73.48,35.22,11.61,1.51,19.51-3.52,26-11,.36.38.72.76,1.07,1.15A63,63,0,0,1,508.32,274.25Z"/></g><path class="cls-1" d="M525,312.36a181,181,0,0,1,2.48,92.14,185.27,185.27,0,0,1-5.52,19c-1.06,3.06-2.23,6.13-3.46,9.19a186.54,186.54,0,0,1-13.24,26.22,185.36,185.36,0,0,1-34.43,41.62q-4,3.56-8.1,6.89C412.23,547.94,342.16,561.19,278.27,536c-94.13-37-139.18-143.4-100.65-237.53A185.86,185.86,0,0,1,207,249.68c1.38-1.69,2.82-3.34,4.29-5q5.85-6.54,12.25-12.46A188.48,188.48,0,0,1,291.65,192q6-2,12.1-3.6a185,185,0,0,1,114.08,6.74A179.82,179.82,0,0,1,525,312.36Z"/><path class="cls-4" d="M345.45,549.12a183.59,183.59,0,0,1-67.32-12.73A179.43,179.43,0,0,1,178,439.29c-19.26-45.09-19.54-95.14-.79-141a186.22,186.22,0,0,1,29.45-48.92c1.32-1.61,2.73-3.24,4.3-5,3.88-4.34,8-8.54,12.27-12.48a189,189,0,0,1,68.26-40.34c4-1.35,8.12-2.56,12.12-3.6A185.34,185.34,0,0,1,418,194.79,179.66,179.66,0,0,1,525.37,312.25h0a182,182,0,0,1,2.49,92.34,186.52,186.52,0,0,1-5.53,19c-1,2.84-2.12,5.86-3.48,9.21a186.69,186.69,0,0,1-47.76,68c-2.64,2.36-5.37,4.68-8.12,6.9A188,188,0,0,1,345.45,549.12Zm5.09-366.33A183.32,183.32,0,0,0,322.41,185a187.24,187.24,0,0,0-18.56,3.83c-4,1-8.05,2.25-12.07,3.59a188.32,188.32,0,0,0-68,40.18c-4.24,3.91-8.35,8.1-12.22,12.42-1.56,1.73-3,3.34-4.28,5A185.51,185.51,0,0,0,178,298.64c-18.66,45.61-18.39,95.45.79,140.34a178.62,178.62,0,0,0,99.65,96.67c61.44,24.2,132,13.26,184.05-28.55,2.74-2.21,5.46-4.52,8.09-6.87a186.56,186.56,0,0,0,47.56-67.7c1.34-3.34,2.48-6.34,3.46-9.17a187.53,187.53,0,0,0,5.51-18.95,181.22,181.22,0,0,0-2.49-91.94,178.89,178.89,0,0,0-106.92-117A183.25,183.25,0,0,0,350.54,182.79Z"/><path class="cls-11" d="M278.27,536c63.89,25.17,134,11.92,184.45-28.62q4.14-3.31,8.1-6.88a186.8,186.8,0,0,0,47.67-67.84c1.22-3.06,2.4-6.12,3.47-9.19a185.94,185.94,0,0,0,5.51-19,181.08,181.08,0,0,0-23.05-137.81,180.72,180.72,0,0,1,1.35,88.09,182.72,182.72,0,0,1-5.51,19c-1.06,3.06-2.23,6.12-3.47,9.19a184.89,184.89,0,0,1-13.23,26.22,185,185,0,0,1-34.43,41.61q-4,3.57-8.11,6.89c-50.48,40.54-120.54,53.78-184.45,28.61A179.49,179.49,0,0,1,170,414.72,179.79,179.79,0,0,0,278.27,536Z"/><path class="cls-4" d="M345.45,551.78a186.17,186.17,0,0,1-68.3-12.92,182.07,182.07,0,0,1-101.56-98.53c-19.54-45.74-19.82-96.52-.8-143a188.83,188.83,0,0,1,29.87-49.62c1.33-1.63,2.77-3.29,4.37-5.05,3.93-4.4,8.12-8.66,12.43-12.65a191.67,191.67,0,0,1,69.23-40.91c4.09-1.37,8.23-2.6,12.29-3.66a191.42,191.42,0,0,1,18.91-3.9A186.87,186.87,0,0,1,419,192.31a182.3,182.3,0,0,1,109,119.19h0a184.61,184.61,0,0,1,2.53,93.7,190,190,0,0,1-5.61,19.3c-1,2.88-2.15,5.93-3.52,9.32a189.24,189.24,0,0,1-48.45,69c-2.68,2.4-5.44,4.75-8.23,7A190.59,190.59,0,0,1,345.45,551.78Zm5.09-366.33a180.5,180.5,0,0,0-27.72,2.14,184.3,184.3,0,0,0-18.3,3.78c-3.93,1-7.93,2.21-11.9,3.54a185.59,185.59,0,0,0-67,39.6c-4.17,3.86-8.22,8-12,12.25-1.54,1.7-2.92,3.28-4.21,4.86a183.22,183.22,0,0,0-28.92,48c-18.39,44.94-18.12,94.05.77,138.28a176,176,0,0,0,98.18,95.25C340,557,409.46,546.24,460.81,505c2.7-2.18,5.38-4.46,8-6.78a183.9,183.9,0,0,0,19.87-21,182,182,0,0,0,14-19.93,184.42,184.42,0,0,0,13-25.8c1.32-3.28,2.44-6.24,3.4-9a183.19,183.19,0,0,0,5.44-18.69,178.54,178.54,0,0,0-2.45-90.59h0A176.22,176.22,0,0,0,416.71,198,180.56,180.56,0,0,0,350.54,185.45Z"/><path class="cls-4" d="M345.45,553.6a188,188,0,0,1-69-13,183.84,183.84,0,0,1-102.57-99.51c-19.73-46.2-20-97.48-.82-144.4a190.9,190.9,0,0,1,30.16-50.1c1.35-1.64,2.8-3.32,4.42-5.11,4-4.42,8.19-8.72,12.55-12.75a193.2,193.2,0,0,1,69.88-41.31c4.13-1.38,8.31-2.62,12.42-3.69a191,191,0,0,1,19.09-3.94,188.67,188.67,0,0,1,98,10.87A184.12,184.12,0,0,1,529.67,311h0a186.51,186.51,0,0,1,2.55,94.62,190.47,190.47,0,0,1-5.67,19.49c-1,2.9-2.16,6-3.54,9.4a191.36,191.36,0,0,1-48.92,69.64c-2.71,2.42-5.5,4.8-8.31,7.06A192.41,192.41,0,0,1,345.45,553.6Zm5.09-366.33a178.12,178.12,0,0,0-27.44,2.12A180.1,180.1,0,0,0,305,193.13c-3.89,1-7.85,2.19-11.78,3.5a183.75,183.75,0,0,0-66.35,39.21c-4.14,3.83-8.15,7.91-11.93,12.13-1.53,1.69-2.88,3.25-4.15,4.8a180.91,180.91,0,0,0-28.64,47.57c-18.21,44.49-17.94,93.1.76,136.88a174.14,174.14,0,0,0,97.17,94.26C340,555.1,408.83,544.42,459.67,503.61c2.67-2.16,5.33-4.42,7.9-6.72A181.82,181.82,0,0,0,514,430.83c1.31-3.24,2.42-6.18,3.38-8.94a182.74,182.74,0,0,0,5.38-18.5,176.7,176.7,0,0,0-2.42-89.66h0A174.44,174.44,0,0,0,416,199.69,178.86,178.86,0,0,0,350.54,187.27Z"/><path class="cls-4" d="M532.2,358.64c-23.87,129.05-166.11,195.41-263,110-65.92-58.12-58.72-168,2.33-228.13,44.42-43.78,106.79-67.46,193-18.37,0,0,34.72,27.64,46.94,56.88s19.11,59.8,19.11,59.8Z"/><path class="cls-12" d="M269.2,468.62c96.89,85.42,239.13,19.06,263-110l-.33-4C462.24,453.47,328.1,487.57,228.5,403,235.47,427.83,248.86,450.68,269.2,468.62Z"/><path class="cls-4" d="M366.35,531.1c-41.33,0-80.29-15.18-113.34-44.32-33.4-29.44-52.53-72.18-53.86-120.34-1.49-53.48,19.54-107,56.27-143.21,20.4-20.11,42.34-34.65,65.22-43.22l.47-.18.49-.08a188.83,188.83,0,0,1,98,10.87A184.12,184.12,0,0,1,529.67,311h0a186.51,186.51,0,0,1,2.55,94.62,190.47,190.47,0,0,1-5.67,19.49c-1,2.9-2.16,6-3.54,9.4a192.49,192.49,0,0,1-13.59,26.94l-.45.61c-33.92,40-81.37,65-130.18,68.6Q372.54,531.1,366.35,531.1ZM323.59,189.31c-21.41,8.12-42,21.86-61.33,40.87-34.83,34.33-54.78,85.17-53.37,136,1.27,45.43,19.22,85.67,50.57,113.3,34.34,30.27,75.35,44.61,118.62,41.45,46.1-3.36,91-27,123.2-64.88A180.72,180.72,0,0,0,514,430.83c1.31-3.24,2.42-6.18,3.38-8.94a182.74,182.74,0,0,0,5.38-18.5,176.7,176.7,0,0,0-2.42-89.66h0A174.44,174.44,0,0,0,416,199.69,179,179,0,0,0,323.59,189.31Z"/><g class="cls-13"><path class="cls-1" d="M265.43,298.69s61.29-53.24,125.48-51.93h.2A75.61,75.61,0,0,1,429.17,258a152.41,152.41,0,0,1,31.73,25.87c23.18,24.07,29.46,39.73,29.46,39.73,1.7-26-4.35-48-23.46-68.2-1.89-2-3.91-4-6-5.95-.49-.45-1-.89-1.5-1.33,0,0,0,0,0,0a185.59,185.59,0,0,0-18.4-12.89c-22.64-13.89-56.56-27.82-91-16.48C285.6,240,261,298.1,265.43,298.69Z"/></g><g class="cls-13"><ellipse class="cls-1" cx="276.74" cy="398.55" rx="24.73" ry="28.4" transform="translate(-155.62 178.35) rotate(-28.24)"/></g><g class="cls-13"><ellipse class="cls-1" cx="301.54" cy="443.8" rx="10.21" ry="11.73" transform="translate(-148.95 152.34) rotate(-22.9)"/></g><path class="cls-14" d="M189.15,451.65c-44.83-50.54-52.71-105.84-25.31-165.86l32-7.92c-24.8,51-19,103.07,15.56,156.19Z"/><g class="cls-15"><path class="cls-1" d="M171.65,285.79,188.46,281c.42-1,.84-2.1,1.29-3.15l-27.93,7.92c-23.9,60-17,115.32,22.08,165.86l5.86-5.31C154.18,397.24,148.58,343.72,171.65,285.79Z"/></g><path class="cls-4" d="M189.15,456.53a4.88,4.88,0,0,1-3.65-1.64c-45.65-51.47-54.43-109-26.09-171.12a4.85,4.85,0,0,1,3.26-2.71l32-7.92a4.87,4.87,0,0,1,5.56,6.86c-23.62,48.54-18.48,99.48,15.26,151.41a4.88,4.88,0,0,1-1.06,6.48l-22.27,17.59A4.89,4.89,0,0,1,189.15,456.53ZM167.32,290c-25.19,56.81-17.84,107.58,22.46,155l15.15-12c-31.52-50.44-37.44-100.15-17.64-148Z"/><path class="cls-4" d="M172.52,305.23c-6.92,28.53-6,58.45,4.15,86a248.48,248.48,0,0,0,11.59,27,1.82,1.82,0,0,1-3.09,1.9c-24.82-32.46-32-78.14-16.11-116.07a1.82,1.82,0,0,1,3.46,1.09Z"/><path class="cls-10" d="M143.85,331.09q18-26.8,43.88-29.25C232.46,218.73,280,185.75,329.12,182.38h2C260.86,149.89,141,243.74,143.85,331.09Z"/><g class="cls-15"><path class="cls-1" d="M330.93,182.38h.22C260.86,149.89,141,243.74,143.85,331.09a86,86,0,0,1,10.56-12.92C165.07,240,264.58,163.42,330.93,182.38Z"/></g><g class="cls-5"><path class="cls-4" d="M289.23,176.37C251.6,190,215.11,224.32,180.31,289q-19.19,1.8-34.08,17.08a102.56,102.56,0,0,0-2.38,25q18-26.8,43.88-29.25C232.46,218.73,280,185.75,329.12,182.38h2C318.45,176.51,304.14,174.78,289.23,176.37Z"/></g><path class="cls-4" d="M143.85,336a4.84,4.84,0,0,1-1.35-.19,4.89,4.89,0,0,1-3.53-4.53c-1.74-53.45,39.94-105.5,82-133.38C261,171.39,302.9,164,333.19,178a4.87,4.87,0,0,1-2,9.3h-1.86c-52,3.63-96.89,41.87-137.27,116.89a4.85,4.85,0,0,1-3.83,2.54c-15.84,1.5-29,10.37-40.3,27.13A4.87,4.87,0,0,1,143.85,336ZM299.49,180.72c-22.39,0-48,8.67-73.11,25.27-35.9,23.79-71.51,65.85-77,110.32,10.24-10.78,22-17.16,35.24-19C220.78,230.94,260.9,192.66,306.71,181,304.35,180.83,301.94,180.72,299.49,180.72Z"/><path class="cls-4" d="M232,202.28c-23.73,22.57-45.56,48.66-55,80.54a1.88,1.88,0,0,1-3.64-1c3.83-16.56,11.09-32.25,20.19-46.58s20-27.51,31.53-39.87a4.88,4.88,0,1,1,6.93,6.87Z"/><path class="cls-14" d="M198.17,529.89c30.59,31.42,75.11,39.51,99.44,18.06s19.26-64.29-11.33-95.7c-.18-.2-.39-.41-.59-.6-30.56-30.92-74.68-38.76-98.84-17.46-18.8,16.56-20,45.9-5.55,72.88A102.71,102.71,0,0,0,198.17,529.89Z"/><g class="cls-15"><path class="cls-1" d="M192.13,444.16c24.16-21.29,68.28-13.45,98.84,17.47.2.19.41.39.59.59a103.63,103.63,0,0,1,14.35,18.44,100.35,100.35,0,0,0-19.63-28.41c-.18-.2-.39-.41-.59-.6-30.56-30.92-74.68-38.76-98.84-17.46-18.8,16.56-20,45.9-5.55,72.88q1.19,2.18,2.51,4.34C172.35,486.07,174.63,459.58,192.13,444.16Z"/></g><g class="cls-16"><path class="cls-4" d="M198.17,529.89c30.59,31.42,75.11,39.51,99.44,18.06s19.26-64.29-11.33-95.7c-.18-.2-.39-.41-.59-.6.46,5.58-.61,12.43-7.3,16.33-11.7,6.83-49.1,2.25-49.1,2.25s-20.91,15.84-48,36.84A102.71,102.71,0,0,0,198.17,529.89Z"/></g><path class="cls-4" d="M263.27,564.73c-22.95,0-48.67-11-68.59-31.43h0c-18.68-19.18-28.9-42.91-28.05-65.11.58-15.35,6.46-28.37,17-37.65,26.21-23.11,73.83-14.89,106.15,18.3,18.68,19.18,28.9,42.91,28.05,65.11-.58,15.36-6.46,28.38-17,37.66C290.77,560.47,277.56,564.73,263.27,564.73ZM201.66,526.5C230.42,556,272,564,294.38,544.29c8.48-7.47,13.22-18.09,13.7-30.71.73-19.26-8.72-40.91-25.29-57.93-28.76-29.54-70.35-37.52-92.72-17.8-8.48,7.47-13.22,18.09-13.7,30.72-.73,19.25,8.72,40.91,25.29,57.93Z"/><ellipse class="cls-10" cx="230.06" cy="512.74" rx="50.1" ry="63.11" transform="translate(-309.89 356.9) rotate(-49.74)"/><g class="cls-15"><path class="cls-1" d="M178.05,493.17c9.47-26.71,42-35.81,72.58-20.32a77.59,77.59,0,0,1,34.53,34.71c-5.69-17.39-19.32-33.76-38-43.19-30.62-15.49-63.11-6.39-72.58,20.32-4.65,13.12-2.86,28.06,3.78,41.7C174.74,515.21,174.35,503.62,178.05,493.17Z"/></g><g class="cls-5"><path class="cls-4" d="M282,498.59a70.24,70.24,0,0,0-25.22-25.31c11.28,25,.37,50-26,57.34-17,4.72-36.58,1-52.66-8.69.7,1.58,1.52,3.17,2.41,4.75,15,26.53,49.84,41.75,77.86,34S296.93,525.11,282,498.59Z"/></g><path class="cls-4" d="M243.65,573.76c-19,0-39.89-8.82-56-25.42-15-15.53-23.27-35-22.58-53.43.5-13.44,5.66-24.9,14.92-33.15,22.4-19.92,62.29-13.76,88.93,13.73,15,15.53,23.27,35,22.58,53.43-.5,13.44-5.66,24.9-14.92,33.14C267.72,570,256.1,573.76,243.65,573.76ZM213,459.71c-10.11,0-19.45,3-26.54,9.34-7.24,6.43-11.27,15.5-11.67,26.22-.59,15.79,6.65,32.65,19.85,46.28h0c23,23.8,56.89,29.73,75.44,13.23,7.23-6.44,11.26-15.5,11.66-26.22.59-15.79-6.65-32.66-19.85-46.28C247.7,467.59,229.36,459.71,213,459.71Z"/><ellipse class="cls-4" cx="211.41" cy="532.19" rx="24.28" ry="45.07" transform="translate(-331.33 349.55) rotate(-49.74)"/><path class="cls-1" d="M564,475a10,10,0,0,1,1.83,3.77c2,8.31-7,19.41-19.29,30.26-3.62,41.11-16.29,72.73-38.74,94-1.8,1.73-3.67,3.38-5.59,5-7.09-2.19-23.25-8.29-35.72-24.13l-.45-.58c-22.35-29-12.32-64.39-11.13-68.35l5.2-9,41.13-71.5a41.7,41.7,0,0,1,13.24-14c14.74-9.65,44.11-28.2,52.35-28.29,5.31-.05,7.58,2.45,7.58,2.45,4.68,7.18-.29,12.84-8.3,18C594.6,410.62,603.87,458.26,564,475Z"/><path class="cls-4" d="M502.15,612.88a4.8,4.8,0,0,1-1.44-.22,77.26,77.26,0,0,1-38.58-26.4c-23.17-30.1-14-65.87-11.93-72.73a4.2,4.2,0,0,1,.44-1L497,432a46.68,46.68,0,0,1,14.79-15.67c44.23-29,52.32-29.06,55-29.08H567c7,0,10.41,3.38,11,4.07a5.39,5.39,0,0,1,.47.6,14,14,0,0,1,2.31,10.78,16,16,0,0,1-3.42,6.73c8.43,3.25,14.88,10.79,17.29,21,3.6,15.18-2.62,35.69-24.15,46.95,2.37,8.92-4.1,20.35-19.32,34.07-4.33,45.25-19.77,79-45.92,100.37A4.89,4.89,0,0,1,502.15,612.88Zm-42.77-96c-1.6,5.61-9.46,37.53,10.48,63.45a67.08,67.08,0,0,0,31.24,22.2c23.17-20,36.8-51.61,40.53-93.9a4.8,4.8,0,0,1,1.63-3.23c14.39-12.65,20.52-22.63,16.84-27.38a4.87,4.87,0,0,1,2-7.48c20.14-8.46,26.1-25.13,23.08-37.89-1.78-7.49-7.75-16-18.76-15.22a4.88,4.88,0,0,1-3-9c5.89-3.8,7.5-6.35,7.82-7.83a3.89,3.89,0,0,0-.6-2.83,7.62,7.62,0,0,0-3.8-.82c-3.64,0-18.85,7.25-49.72,27.49a36.79,36.79,0,0,0-11.69,12.37Z"/><path class="cls-4" d="M567.23,417.29l-30.31,4.16a1.64,1.64,0,0,1-.78-3.16l28.74-10.47a4.91,4.91,0,1,1,2.35,9.47Z"/><path class="cls-4" d="M554.81,481.73a29.36,29.36,0,0,1-10.95-2.18,4.88,4.88,0,1,1,3.62-9.06,18.83,18.83,0,0,0,14.66,0,4.88,4.88,0,1,1,3.62,9.06A29.36,29.36,0,0,1,554.81,481.73Z"/><path class="cls-4" d="M525.36,482.51c13.89-10.5,16.72-12,16.81-30.17a2.09,2.09,0,0,1,2.19-2.09,2.07,2.07,0,0,1,1.76,1.14,28.88,28.88,0,0,1,3.11,10.92,20.49,20.49,0,0,1-11.94,20.32,27.57,27.57,0,0,1-10.92,2.58,1.53,1.53,0,0,1-1-2.7Z"/><g class="cls-5"><path class="cls-4" d="M546.49,509.05c-3.62,41.11-16.29,72.73-38.74,94l.13.26c-1.9,1.66-3.81,3.23-5.72,4.69-29.92,22.86-62.44,19.68-62.44,19.68-34.55-3.42-54.38-28.64-58.21-33.75a88,88,0,0,1-17.05-45.47,136.8,136.8,0,0,0,25.6-3.25,138.59,138.59,0,0,0,43.88-18.28L446.38,518c-11.14,12-21.55,24.12-25.27,37.44a23.78,23.78,0,0,0,12.45,27.79c12.77,6.34,23.49,5.69,32.88.65,8-4.31,15.07-11.84,21.6-21,21.36-29.91,37.16-77.17,63.25-86l14.49,1.94C567.77,487.1,558.82,498.2,546.49,509.05Z"/></g><path class="cls-4" d="M602.86,767.06c7.67,7.54,4.94,17.14-3.59,22.61-7.08,4.64-14.95,6.56-22.69,7.76-23.07,3-47.76-.56-68.34-11.82-20.42-11.16-23.33-30.71,1.76-37.78a74.71,74.71,0,0,1,23.08-2.22,1.63,1.63,0,0,1,.12,3.25c-10.2,1.42-27.06,3.93-32.57,13.06-3.1,6.7,6.73,12.75,12,15.71,19.1,9.46,41.74,12.57,62.9,11.18,8.37-.78,22.78-2.69,26.54-11,1-2.52.11-5.82-1.79-8.75a1.64,1.64,0,0,1,2.53-2Z"/><path class="cls-4" d="M820.67,454.6c6.18-6.94,16.73-4.75,20.87,3.3,5.48,10.44,2.48,23.3-5,31.84-9.42,10.82-25.65,8.13-26.26-7.47a1.65,1.65,0,0,1,3.16-.7c1.19,2.75,2.87,5.19,4.87,6.35,4.37,2.45,8.43-.57,11.25-4.15,6.69-7.57,9.19-32.06-7-26.5a1.67,1.67,0,0,1-1.85-2.67Z"/><path class="cls-4" d="M842.21,558.89c3.53,26-9,57.54-28.37,75.27-7.46,6.72-18.67,12.74-29.06,8.62s-14.13-16.6-14.43-26.62c-.53-18.66,6-36.86,15.86-52.46,5-7.65,10.94-14.79,18.32-20.25a1.63,1.63,0,0,1,2.09,2.49c-15,15.33-23.91,36.26-26.76,57.3-1.06,9.61-1.36,25.9,8.47,30.53,6.49,2.35,14-2.44,19.2-6.85,12.49-11,21.26-26.74,26.67-42.53A86.22,86.22,0,0,0,839,559.13a1.63,1.63,0,0,1,3.24-.24Z"/><path class="cls-4" d="M238.92,591.38c24,10.79,44,38.11,48.83,63.92,2.57,12.88-.82,30.08-16.19,32.61C247,691,222.62,661.49,213.35,641.43c-3.86-8.27-6.75-17.1-7.48-26.25a1.63,1.63,0,0,1,3.22-.47c5.1,20.81,18.1,39.5,34.45,53,7.59,6,21.25,14.86,30.38,9,5.43-4.25,5.33-13.14,4.35-19.9-2.73-16.43-11.42-32.2-21.95-45.15a86.27,86.27,0,0,0-18.91-17.42,1.63,1.63,0,0,1,1.51-2.88Z"/><path class="cls-4" d="M366.66,719.59c7.3-.13,14.15,6.29,14.55,13.88.84,10-7.71,18.62-17.28,19.74-9.55,1.49-20.24-5.51-20.23-15.66a14,14,0,0,1,3.69-9.72,1.67,1.67,0,0,1,2.81,1.59c-1.43,4.7-.3,9.64,3.53,12.33,6.63,5,18.42.28,19.16-8.13.51-4.67-2.6-8.76-7-10.9a1.67,1.67,0,0,1,.77-3.13Z"/><path class="cls-4" d="M153.31,443.42c10.21,1.44,15.92,13.89,12,23.22-2.54,7.27-11.63,11.58-18.94,8.54-9.65-3.57-14.33-16.46-8.4-24.84a1.68,1.68,0,0,1,3,1.28,14.9,14.9,0,0,0,4,11.88c5.93,6.08,13.15,2.22,12.93-5.94a14.16,14.16,0,0,0-5.78-11.14,1.68,1.68,0,0,1,1.18-3Z"/></svg>