<svg id="Capa_2" data-name="Capa 2" xmlns="http://www.w3.org/2000/svg" viewBox="0 0 946.09 968.86"><defs><style>.cls-1{fill:#fff;}.cls-2{fill:#371b45;}.cls-3{opacity:0.25;}.cls-4{opacity:0.35;}.cls-5{fill:#3ba1da;}.cls-6{opacity:0.5;}.cls-7{fill:#121a27;}</style></defs><path class="cls-1" d="M714.87,543.27V809a81.47,81.47,0,0,1-81.23,81.23H365A81.48,81.48,0,0,1,283.8,809V543.27A81.46,81.46,0,0,1,365,462H633.64a81.5,81.5,0,0,1,81.23,81.23" transform="translate(-26.95 -15.57)"/><path class="cls-2" d="M633.63,897.26H365a88.4,88.4,0,0,1-88.3-88.3V543.27A88.4,88.4,0,0,1,365,455H633.63a88.4,88.4,0,0,1,88.3,88.3V809A88.4,88.4,0,0,1,633.63,897.26ZM365,469.1a74.25,74.25,0,0,0-74.17,74.17V809A74.25,74.25,0,0,0,365,883.13H633.63A74.25,74.25,0,0,0,707.8,809V543.27a74.25,74.25,0,0,0-74.17-74.17Z" transform="translate(-26.95 -15.57)"/><path class="cls-1" d="M401.6,451.42C302.88,485.32,268.07,585,253.51,585.31s-23.95-24.65-36.62-41.14c-22.8-29.67-53.2-2.76-112.56-17.46-29.29-7.24.88,80.72,13.83,114,16.85,43.37,53.62,96.61,122,95.18,99.58-2.08,102.6-124.53,102.6-124.53" transform="translate(-26.95 -15.57)"/><g class="cls-3"><path class="cls-2" d="M352.71,584.25l-10,27.14s-3,122.45-102.59,124.54c-68.35,1.42-105.14-51.83-122-95.18-13-33.31-43.11-121.29-13.83-114l1.94.46c3.85,26.94,17.52,65.76,25.19,85.47,6.09,15.7,77.81-21.6,78.29-2.3.51,21.65-41,54.49-25.71,75.75,13.28,18.46,41.13,22.29,69.39,21.73,81.33-1.61,52.31-107.33,99.29-123.58" transform="translate(-26.95 -15.57)"/></g><path class="cls-2" d="M237.43,743C206,743,178.24,732,155,710.29c-22.6-21.13-36.1-48.09-43.44-67C108.51,635.43,98,607.68,91.13,581c-10.27-39.82-6-51.32-1.06-56.89,2.22-2.52,7.23-6.42,16-4.26,25,6.17,44.94,4.64,61,3.42,21.65-1.66,40.35-3.09,55.47,16.59a193.12,193.12,0,0,1,10.82,16.28c6.21,10,13.2,21.34,19.34,22.06,2.91-2.08,9.36-11.57,15.09-20,21.17-31.14,60.58-89.11,131.57-113.48a7.06,7.06,0,0,1,4.58,13.36C337.36,481,301.09,534.29,279.42,566.16c-11.79,17.34-17.7,26-25.77,26.21-14.43.34-23.51-14.49-32.35-28.79-3.22-5.21-6.55-10.59-10-15.1-10-13.07-20.49-12.86-43.18-11.12-17.07,1.31-38.31,2.93-65.47-3.79a4.07,4.07,0,0,0-1.92-.17s-5.62,5.5,3.63,42.26c6.65,26.42,17.3,54.53,20.4,62.52C138.14,672.67,171,730.33,240,728.86c38.16-.8,65.79-20.45,82.15-58.41,12.61-29.29,13.53-58.94,13.53-59.24a7.07,7.07,0,0,1,14.13.36c0,1.3-.94,32.33-14.52,64.08-18.45,43.14-51.29,66.42-95,67.33C239.32,743,238.37,743,237.43,743Z" transform="translate(-26.95 -15.57)"/><path class="cls-2" d="M263.74,739.91a7.06,7.06,0,0,1-5.85-11c42.18-62.59-3.42-140.07-3.89-140.85a7.07,7.07,0,0,1,12.12-7.27c2.09,3.48,50.64,86.05,3.49,156A7.08,7.08,0,0,1,263.74,739.91Z" transform="translate(-26.95 -15.57)"/><path class="cls-1" d="M111.09,545.6C64.72,538.21,63.93,499.93,83.75,484c12.15-9.77,52-16,57.42,4.73,5.09,19.32-25.89,21.08-25.69,29.87.12,5.24,4.23,10.38,21.17,11.93" transform="translate(-26.95 -15.57)"/><path class="cls-1" d="M115.48,518.62c.13,5.24,4.22,10.38,21.16,11.94l-25.56,15A69.82,69.82,0,0,1,95,541.15c-6.59-13.68-2-29.9,9.27-38.92,7.13-5.74,23.81-10.25,37.46-8.8-.64,15-26.4,17.17-26.23,25.19" transform="translate(-26.95 -15.57)"/><g class="cls-3"><path class="cls-2" d="M115.48,518.62c.13,5.24,4.22,10.38,21.16,11.94l-25.56,15A69.82,69.82,0,0,1,95,541.15c-6.59-13.68-2-29.9,9.27-38.92,4.68-3.77,14.34-1.69,22.68-6.12,8.63-4.57,13.92-18.49,14.78-2.68-.64,15-26.4,17.17-26.23,25.19" transform="translate(-26.95 -15.57)"/></g><path class="cls-2" d="M111.1,552.67a7,7,0,0,1-1.12-.09c-23.57-3.76-39.73-15.87-44.33-33.21-3.91-14.73,1.59-31.15,13.67-40.86,10.39-8.35,35.21-13.85,51.65-8.44,9,3,14.9,8.81,17,16.88,4.56,17.32-11,25.21-19.35,29.45a63.35,63.35,0,0,0-5.62,3.08c1.42,1.57,6,3.28,14.26,4A7.07,7.07,0,0,1,136,537.59c-18.06-1.66-27.34-8-27.59-18.81-.18-7.87,7.27-11.65,13.84-15,10.3-5.23,13.49-7.87,12.07-13.25-.32-1.21-1.29-4.92-7.78-7.06-12.09-4-31.87.8-38.38,6a25.76,25.76,0,0,0-8.87,26.22c3.15,11.88,14.84,20,32.9,22.88a7.07,7.07,0,0,1-1.1,14Z" transform="translate(-26.95 -15.57)"/><path class="cls-1" d="M162,530.41c-55.16,4-84.54-21.38-113.29-3.93-22,13.39-15,60.79,1.21,77,24.28,24.28,68.86,38.9,83.93,41.09,29.68,4.3,69.52,6.77,80.42-51" transform="translate(-26.95 -15.57)"/><path class="cls-2" d="M162.5,537.46a174,174,0,0,1-26.33.19,226.71,226.71,0,0,1-25.87-3.49c-8.45-1.56-16.7-3.47-24.63-4.77s-15.52-1.9-22.22-.47a33.73,33.73,0,0,0-9.55,3.62l-1.14.64-.84.59a18.2,18.2,0,0,0-1.63,1.3,19,19,0,0,0-2.76,3.4c-3.35,5.17-4.8,12.6-4.86,20a72.66,72.66,0,0,0,3.51,22.37A54.63,54.63,0,0,0,50.53,591a38.53,38.53,0,0,0,2.81,4.37,26.32,26.32,0,0,0,3.45,3.71C67.91,609.77,82.2,618,97,624.61a226.34,226.34,0,0,0,22.76,8.71c3.85,1.17,7.75,2.35,11.52,3.16,3.5.78,7.79,1.33,11.76,1.83a96.62,96.62,0,0,0,23.43.39,44.58,44.58,0,0,0,20.26-7.38,45.3,45.3,0,0,0,8-7.17,57.19,57.19,0,0,0,6.51-9.19c3.91-6.65,6.78-14.21,9.53-22l0-.07a3.56,3.56,0,0,1,6.92,1.38,77.57,77.57,0,0,1-5.78,26A54.77,54.77,0,0,1,205,632.4a49.49,49.49,0,0,1-10.15,10.24c-7.84,5.89-17.34,9.06-26.51,10.33a110.69,110.69,0,0,1-27,0c-4.38-.5-8.47-.93-13.22-1.89-4.49-.9-8.67-2.1-12.9-3.33a220.87,220.87,0,0,1-24.51-9.09c-15.91-7-31.47-15.61-44.87-28.18A39.5,39.5,0,0,1,40.77,605a53.24,53.24,0,0,1-4-6.24,71.31,71.31,0,0,1-5.56-13A88.12,88.12,0,0,1,27,558.33a65.1,65.1,0,0,1,1.62-14.22A44,44,0,0,1,34.35,530a30.72,30.72,0,0,1,8.52-9l1.77-1.19,1.62-.91a49.17,49.17,0,0,1,14-5.27,57.28,57.28,0,0,1,14.48-1.06,107,107,0,0,1,13.52,1.62c8.68,1.56,16.83,3.58,24.92,5.18a184.37,184.37,0,0,0,48.31,4h0a7.06,7.06,0,0,1,1,14.09" transform="translate(-26.95 -15.57)"/><path class="cls-1" d="M162,530.41c-55.16,4-84.54-21.38-113.29-3.93-22,13.39-15,60.79,1.21,77,24.28,24.28,68.86,38.9,83.93,41.09,29.68,4.3,69.52,6.77,80.42-51" transform="translate(-26.95 -15.57)"/><g class="cls-3"><path class="cls-2" d="M213.42,597.67c-12,53.53-50.6,51.08-79.57,46.89-15.08-2.19-59.66-16.81-83.94-41.08-10.8-10.81-17.54-35.5-14.29-54.71,2,14.05,7.52,27.55,14.85,34.89,25.2,25.21,71.46,40.36,87.11,42.64,25.85,3.74,59.15,6.16,75.84-28.63" transform="translate(-26.95 -15.57)"/></g><path class="cls-2" d="M162.5,537.46a176.37,176.37,0,0,1-26.31-.11,226,226,0,0,1-25.8-3.65c-8.43-1.62-16.66-3.58-24.61-5s-15.63-2-22.48-.56a34.34,34.34,0,0,0-9.77,3.69l-1.16.65-.89.62a17,17,0,0,0-1.71,1.36,19.47,19.47,0,0,0-2.89,3.54,29.3,29.3,0,0,0-3.78,9.42,50.72,50.72,0,0,0-1.22,11,72.42,72.42,0,0,0,3.57,22.62,56.6,56.6,0,0,0,4.43,10.3,39.54,39.54,0,0,0,2.88,4.45,27.21,27.21,0,0,0,3.55,3.77c11.31,10.66,25.73,18.71,40.58,25.2a219.55,219.55,0,0,0,22.83,8.57c3.86,1.14,7.78,2.28,11.55,3,3.5.74,7.79,1.27,11.76,1.77a99.61,99.61,0,0,0,23.41.41,42.42,42.42,0,0,0,28.37-14.42,55.81,55.81,0,0,0,6.53-9.19c3.92-6.66,6.77-14.24,9.45-22l0-.07a3.56,3.56,0,0,1,6.92,1.38,79.42,79.42,0,0,1-5.86,25.94,55.48,55.48,0,0,1-6.9,12.15,48.9,48.9,0,0,1-10.13,10.24c-7.76,6-17.29,9.14-26.46,10.47s-18.31.92-27,0a131.16,131.16,0,0,1-13.22-1.94c-4.48-.94-8.66-2.18-12.87-3.44a231,231,0,0,1-24.44-9.23C75,631.29,59.59,622.56,46.36,610a41.33,41.33,0,0,1-5-5.48,54.46,54.46,0,0,1-4-6.17,71.88,71.88,0,0,1-5.48-12.89,88.77,88.77,0,0,1-4.15-27.12,64.71,64.71,0,0,1,1.59-14.06A43.1,43.1,0,0,1,35,530.4a34.25,34.25,0,0,1,5.1-6.2,32.28,32.28,0,0,1,3.22-2.59L45,520.45l1.6-.9a48.76,48.76,0,0,1,13.77-5.19,57.22,57.22,0,0,1,14.3-1.07,106.35,106.35,0,0,1,13.44,1.54c8.66,1.49,16.83,3.45,24.94,5a213.36,213.36,0,0,0,24.21,3.44,164,164,0,0,0,24.18.1h.06a7.07,7.07,0,0,1,1,14.1" transform="translate(-26.95 -15.57)"/><path class="cls-1" d="M217,552.2s5.57-66-31.76-76c-32.18-8.64-40.86,2.66-41.53,9.72-1.14,12.06,24.74,19.66,25.14,23.66s-19.59,26.78-1.2,41" transform="translate(-26.95 -15.57)"/><path class="cls-2" d="M209.93,551.6c.09-1.91.12-4.19.1-6.31s-.11-4.32-.2-6.48c-.21-4.32-.6-8.62-1.19-12.85a86.61,86.61,0,0,0-6.47-24c-3.27-7.24-8-13.13-14.11-16.21l-2.34-1-2.46-.81c-2-.48-4.09-1-6.12-1.46a70.74,70.74,0,0,0-12-1.45c-3.77,0-7.46.41-9.92,1.6s-3.65,2.78-3.85,4c0,.2-.07.13,0,.33a3.44,3.44,0,0,0,.44.92,15.27,15.27,0,0,0,3.05,3.18,76.59,76.59,0,0,0,10.38,6.73l3.08,1.82a34,34,0,0,1,3.64,2.48,13.3,13.3,0,0,1,1.2,1.07c.23.22.53.56.78.84l.39.49c.17.25.34.51.5.77s.31.54.45.81a8.84,8.84,0,0,1,.49,1.32,9.59,9.59,0,0,1,.3,1.47,8.88,8.88,0,0,1,0,1.15,10.52,10.52,0,0,1-.09,1.14l-.13.63a10.46,10.46,0,0,1-.3,1.1,17.71,17.71,0,0,1-1,2.45l-.89,1.76a81.13,81.13,0,0,0-5.44,11.28,26.7,26.7,0,0,0-1.92,9.84c.05,3,1.17,6.06,3.46,9.6l.15.23a3.66,3.66,0,0,1-4.47,5.36,19.73,19.73,0,0,1-6.79-4.78,20.18,20.18,0,0,1-4.46-7.82,28.18,28.18,0,0,1,.64-16.94,92.15,92.15,0,0,1,6-13.41l.62-1.29a5.56,5.56,0,0,0,.27-.7s-.07.2-.08.29l0,.21a4.17,4.17,0,0,0-.07.71,6.06,6.06,0,0,0,0,.73,5.62,5.62,0,0,0,.19,1.06,6.32,6.32,0,0,0,.36.92,2.58,2.58,0,0,0,.22.44,4.38,4.38,0,0,0,.28.42l.12.16a1.54,1.54,0,0,0,.2.22s.06,0-.09-.05a22.1,22.1,0,0,0-2-1.27L158,510.7a90.77,90.77,0,0,1-12.62-7.8,29.13,29.13,0,0,1-6.34-6.6,18.9,18.9,0,0,1-2.45-5.21,16,16,0,0,1-.5-6.41,19.63,19.63,0,0,1,4.52-10.16,23,23,0,0,1,8-6.07,14,14,0,0,1,2.15-.9l2.15-.75c1.4-.35,2.84-.72,4.23-1s2.76-.4,4.11-.49l4-.16a84.69,84.69,0,0,1,15,1.74c2.42.5,4.72,1.09,7.13,1.68l4,1.3,3.87,1.74a41.29,41.29,0,0,1,12.94,10.46,57.51,57.51,0,0,1,8.23,13.43c4.14,9.37,6.1,19,7.22,28.54.51,4.78.78,9.54.86,14.29,0,2.38,0,4.75-.1,7.13s-.21,4.67-.45,7.29a7.06,7.06,0,0,1-14.09-1Z" transform="translate(-26.95 -15.57)"/><path class="cls-2" d="M124.48,534.85a7.08,7.08,0,0,0-2.17,1.53,19.64,19.64,0,0,0-2.48,3.15,45.78,45.78,0,0,0-4.1,8.55,103.65,103.65,0,0,0-5,19.88,135.58,135.58,0,0,0-1.66,20.84,88.89,88.89,0,0,0,2.07,20.57l0,0a3.54,3.54,0,0,1-6.8,1.92,96.38,96.38,0,0,1-4.12-22.19,146.79,146.79,0,0,1,0-22.39A114.7,114.7,0,0,1,104,544.28a58.45,58.45,0,0,1,4.37-11.34,32.92,32.92,0,0,1,3.76-5.67,20.85,20.85,0,0,1,6.26-5.15l.45-.24a7.1,7.1,0,0,1,6.59,12.57,8.26,8.26,0,0,1-.92.4" transform="translate(-26.95 -15.57)"/><path class="cls-2" d="M56.41,540.43c4.58-.46,9-.66,13.59-.7a123.85,123.85,0,0,1,13.7.64,67.12,67.12,0,0,1,13.92,2.8,36.91,36.91,0,0,1,7,3.1,22.2,22.2,0,0,1,6.49,5.58l.19.24a5.32,5.32,0,0,1-8.44,6.48,5.46,5.46,0,0,1-.39-.59c-1.37-2.37-4.56-4.56-8.14-6.14a58.73,58.73,0,0,0-11.84-3.62,118.43,118.43,0,0,0-12.76-1.87c-4.3-.4-8.71-.63-13-.63h-.07a2.65,2.65,0,0,1-.26-5.29" transform="translate(-26.95 -15.57)"/><path class="cls-2" d="M53.85,568.32a102.65,102.65,0,0,1,13.46-.13,107.57,107.57,0,0,1,13.42,1.56A82.35,82.35,0,0,1,94,573.48a58.52,58.52,0,0,1,12.59,6.84,5.31,5.31,0,1,1-6.19,8.63,4,4,0,0,1-.4-.32l-.14-.11A48.22,48.22,0,0,0,90.25,582a73.41,73.41,0,0,0-11.37-4.47,101.37,101.37,0,0,0-24.76-3.87H54a2.65,2.65,0,0,1-.16-5.29" transform="translate(-26.95 -15.57)"/><path class="cls-1" d="M598.4,451.42C697.12,485.32,731.92,585,746.49,585.31s24-24.65,36.62-41.14c22.8-29.67,53.2-2.76,112.56-17.46,29.29-7.24-.88,80.72-13.83,114-16.85,43.37-53.62,96.61-122,95.18-99.59-2.08-102.6-124.53-102.6-124.53" transform="translate(-26.95 -15.57)"/><g class="cls-3"><path class="cls-2" d="M647.29,584.25l10,27.14s3,122.45,102.6,124.54c68.35,1.42,105.14-51.83,122-95.18,12.95-33.31,43.11-121.29,13.83-114-.65.16-1.31.32-1.95.46-3.85,26.94-17.52,65.76-25.18,85.47-6.09,15.7-77.82-21.6-78.29-2.3-.52,21.65,41,54.49,25.71,75.75-13.28,18.46-41.13,22.29-69.39,21.73-81.33-1.61-52.31-107.33-99.29-123.58" transform="translate(-26.95 -15.57)"/></g><path class="cls-2" d="M762.57,743c-1,0-1.9,0-2.85,0-43.7-.91-76.54-24.19-95-67.33-13.58-31.75-14.49-62.78-14.52-64.08a7.08,7.08,0,0,1,6.89-7.24h.18a7.07,7.07,0,0,1,7.06,6.89c0,.29.92,29.94,13.53,59.23,16.35,38,44,57.61,82.15,58.41.84,0,1.69,0,2.53,0,67.33,0,99.47-56.64,112.71-90.7,3.1-8,13.75-36.1,20.4-62.52,9.21-36.59,3.7-42.18,3.59-42.28h0a4.42,4.42,0,0,0-1.88.19c-27.16,6.72-48.4,5.1-65.47,3.79-22.69-1.73-33.15-2-43.19,11.12-3.46,4.5-6.79,9.89-10,15.09-8.84,14.31-18,29.12-32.35,28.8-8.07-.17-14-8.87-25.78-26.21C698.91,534.29,662.64,481,596.11,458.1a7.06,7.06,0,0,1,4.58-13.36c71,24.37,110.4,82.34,131.57,113.48,5.72,8.42,12.17,17.91,15.09,20,6.14-.72,13.13-12,19.34-22.07a194.58,194.58,0,0,1,10.82-16.27c15.12-19.68,33.81-18.25,55.47-16.59,16,1.22,36,2.75,61-3.42,8.73-2.15,13.74,1.74,16,4.26,4.9,5.57,9.21,17.07-1.06,56.89-6.87,26.67-17.39,54.42-20.44,62.29-7.35,18.9-20.84,45.86-43.44,67C821.76,732,794,743,762.57,743Z" transform="translate(-26.95 -15.57)"/><path class="cls-2" d="M736.26,739.91a7.05,7.05,0,0,1-5.87-3.11c-47.15-70,1.4-152.54,3.49-156A7.07,7.07,0,0,1,746,588.05h0c-.47.78-46,78.41-3.89,140.85a7.06,7.06,0,0,1-5.85,11Z" transform="translate(-26.95 -15.57)"/><path class="cls-1" d="M888.91,545.6c46.37-7.39,47.16-45.67,27.34-61.58-12.15-9.77-52-16-57.42,4.73-5.09,19.32,25.88,21.08,25.68,29.87-.12,5.24-4.22,10.38-21.16,11.93" transform="translate(-26.95 -15.57)"/><path class="cls-1" d="M884.52,518.62c-.13,5.24-4.23,10.38-21.16,11.94l25.55,15A69.77,69.77,0,0,0,905,541.15c6.59-13.68,2-29.9-9.27-38.92-7.14-5.74-23.81-10.25-37.46-8.8.63,15,26.4,17.17,26.23,25.19" transform="translate(-26.95 -15.57)"/><g class="cls-3"><path class="cls-2" d="M884.52,518.62c-.13,5.24-4.23,10.38-21.16,11.94l25.55,15A69.77,69.77,0,0,0,905,541.15c6.59-13.68,2-29.9-9.27-38.92-4.68-3.77-14.34-1.69-22.68-6.12-8.63-4.57-13.93-18.49-14.78-2.68.63,15,26.4,17.17,26.23,25.19" transform="translate(-26.95 -15.57)"/></g><path class="cls-2" d="M888.9,552.67a7.07,7.07,0,0,1-1.1-14c18.06-2.87,29.74-11,32.89-22.88a25.74,25.74,0,0,0-8.86-26.22c-6.51-5.23-26.3-10-38.38-6-6.49,2.14-7.47,5.85-7.79,7.06-1.41,5.38,1.78,8,12.08,13.25,6.57,3.33,14,7.11,13.84,15-.25,10.83-9.53,17.15-27.59,18.81a7.07,7.07,0,1,1-1.28-14.08c8.24-.75,12.84-2.46,14.26-4a63.35,63.35,0,0,0-5.62-3.08C863,512.16,847.44,504.27,852,487c2.13-8.07,8-13.91,17-16.88,16.43-5.41,41.26.09,51.65,8.44,12.08,9.71,17.58,26.13,13.67,40.86-4.6,17.34-20.76,29.45-44.33,33.21A7,7,0,0,1,888.9,552.67Z" transform="translate(-26.95 -15.57)"/><path class="cls-1" d="M838,530.41c55.16,4,84.54-21.38,113.28-3.93,22,13.39,15,60.79-1.2,77-24.28,24.28-68.87,38.9-83.94,41.09-29.68,4.3-69.51,6.77-80.41-51" transform="translate(-26.95 -15.57)"/><path class="cls-2" d="M838.52,523.37a184.41,184.41,0,0,0,48.31-4c8.09-1.6,16.24-3.62,24.91-5.17a107,107,0,0,1,13.53-1.63,57.75,57.75,0,0,1,14.48,1.06,49.17,49.17,0,0,1,14,5.27l1.62.91,1.76,1.19a32.43,32.43,0,0,1,3.3,2.65,34.7,34.7,0,0,1,5.23,6.34,44,44,0,0,1,5.77,14.13A65.1,65.1,0,0,1,973,558.33a88.12,88.12,0,0,1-4.22,27.36,71.31,71.31,0,0,1-5.56,13,53.24,53.24,0,0,1-4,6.24,39.5,39.5,0,0,1-5.12,5.54c-13.41,12.57-29,21.14-44.87,28.18a222.89,222.89,0,0,1-24.51,9.09c-4.23,1.23-8.42,2.43-12.9,3.33-4.75,1-8.84,1.39-13.22,1.89a111.19,111.19,0,0,1-27,0c-9.17-1.27-18.68-4.45-26.51-10.33A49.24,49.24,0,0,1,795,632.4a54.77,54.77,0,0,1-6.92-12.15,77.83,77.83,0,0,1-5.79-26,3.57,3.57,0,0,1,6.92-1.39l0,.08c2.75,7.8,5.62,15.36,9.53,22a57.64,57.64,0,0,0,6.51,9.19,43,43,0,0,0,28.3,14.55,96.53,96.53,0,0,0,23.42-.39c4-.5,8.27-1,11.77-1.83,3.77-.81,7.67-2,11.52-3.16A226.34,226.34,0,0,0,903,624.61c14.77-6.63,29.06-14.84,40.19-25.5a26.32,26.32,0,0,0,3.45-3.71,38.53,38.53,0,0,0,2.81-4.37,54.63,54.63,0,0,0,4.35-10.18,72.71,72.71,0,0,0,3.51-22.37c-.06-7.41-1.51-14.84-4.86-20a18.74,18.74,0,0,0-2.77-3.4,18.07,18.07,0,0,0-1.62-1.3l-.85-.59-1.13-.64a34,34,0,0,0-9.55-3.62c-6.7-1.44-14.3-.8-22.22.47s-16.18,3.21-24.63,4.77a226.71,226.71,0,0,1-25.87,3.49,174,174,0,0,1-26.33-.19,7.07,7.07,0,0,1,1-14.1Z" transform="translate(-26.95 -15.57)"/><path class="cls-1" d="M838,530.41c55.16,4,84.54-21.38,113.28-3.93,22,13.39,15,60.79-1.2,77-24.28,24.28-68.87,38.9-83.94,41.09-29.68,4.3-69.51,6.77-80.41-51" transform="translate(-26.95 -15.57)"/><g class="cls-3"><path class="cls-2" d="M786.58,597.67c12,53.53,50.6,51.08,79.57,46.89,15.08-2.19,59.66-16.81,83.94-41.08,10.79-10.81,17.54-35.5,14.29-54.71-2,14.05-7.52,27.55-14.85,34.89-25.21,25.21-71.46,40.36-87.11,42.64-25.86,3.74-59.15,6.16-75.84-28.63" transform="translate(-26.95 -15.57)"/></g><path class="cls-2" d="M838.52,523.37a162.78,162.78,0,0,0,24.19-.1,213.68,213.68,0,0,0,24.21-3.44c8.11-1.55,16.28-3.51,24.93-5a106.76,106.76,0,0,1,13.45-1.52,56.74,56.74,0,0,1,14.3,1.06,48.76,48.76,0,0,1,13.77,5.19l1.6.9,1.71,1.16a33.77,33.77,0,0,1,3.22,2.59,34.25,34.25,0,0,1,5.1,6.2,43.1,43.1,0,0,1,5.66,13.88,64.71,64.71,0,0,1,1.59,14.06,88.78,88.78,0,0,1-4.16,27.12,70.82,70.82,0,0,1-5.47,12.89,54.46,54.46,0,0,1-4,6.17,41.38,41.38,0,0,1-5,5.48c-13.23,12.56-28.66,21.29-44.5,28.47a228.68,228.68,0,0,1-24.43,9.23c-4.22,1.26-8.39,2.5-12.87,3.44a131.57,131.57,0,0,1-13.22,1.94c-8.7.9-17.77,1.33-27,0s-18.68-4.51-26.45-10.47A49,49,0,0,1,795,632.35a55.85,55.85,0,0,1-6.89-12.15,79.44,79.44,0,0,1-5.87-25.94,3.56,3.56,0,0,1,6.92-1.39l0,.08c2.68,7.81,5.53,15.39,9.44,22a56.81,56.81,0,0,0,6.54,9.2,45.82,45.82,0,0,0,8.06,7.17,45.27,45.27,0,0,0,20.31,7.24,99.52,99.52,0,0,0,23.4-.41c4-.5,8.27-1,11.77-1.77,3.77-.77,7.69-1.91,11.54-3.06a216.57,216.57,0,0,0,22.84-8.56c14.85-6.49,29.27-14.54,40.58-25.2a27.21,27.21,0,0,0,3.55-3.77,39.54,39.54,0,0,0,2.88-4.45,56.6,56.6,0,0,0,4.43-10.3,72.42,72.42,0,0,0,3.57-22.62,50.11,50.11,0,0,0-1.23-11,29.16,29.16,0,0,0-3.77-9.42,19.47,19.47,0,0,0-2.89-3.54,18.2,18.2,0,0,0-1.71-1.36l-.89-.62-1.16-.65a34.64,34.64,0,0,0-9.77-3.69c-6.85-1.48-14.54-.78-22.48.56s-16.18,3.33-24.61,5a226,226,0,0,1-25.8,3.65,176.37,176.37,0,0,1-26.31.11,7.07,7.07,0,0,1,1-14.1Z" transform="translate(-26.95 -15.57)"/><path class="cls-1" d="M783,552.2s-5.57-66,31.76-76c32.17-8.64,40.86,2.66,41.53,9.72,1.14,12.06-24.74,19.66-25.14,23.66s19.59,26.78,1.2,41" transform="translate(-26.95 -15.57)"/><path class="cls-2" d="M776,552.79c-.25-2.61-.36-4.87-.46-7.29s-.12-4.75-.09-7.13c.08-4.75.34-9.51.86-14.29,1.12-9.52,3.07-19.18,7.22-28.54a56.84,56.84,0,0,1,8.23-13.43,41.25,41.25,0,0,1,12.93-10.46l3.88-1.74,4-1.3c2.41-.59,4.71-1.18,7.13-1.68a84.69,84.69,0,0,1,15-1.74l4,.15c1.35.1,2.74.33,4.11.5s2.82.61,4.23,1l2.15.76a14,14,0,0,1,2.15.9,23,23,0,0,1,8,6.07,19.63,19.63,0,0,1,4.52,10.16,16.13,16.13,0,0,1-.5,6.41A18.9,18.9,0,0,1,861,496.3a29.13,29.13,0,0,1-6.34,6.6A90.77,90.77,0,0,1,842,510.7l-2.82,1.56a22.1,22.1,0,0,0-2,1.27c-.15.1,0,0-.09.05a2.53,2.53,0,0,0,.2-.22l.12-.16a4.38,4.38,0,0,0,.28-.42,2.58,2.58,0,0,0,.22-.44,6.32,6.32,0,0,0,.36-.92,4.9,4.9,0,0,0,.18-1.06,3.64,3.64,0,0,0,0-.73,5.51,5.51,0,0,0-.07-.71l0-.21a2.79,2.79,0,0,0-.08-.29,7,7,0,0,0,.28.7l.62,1.29a92.15,92.15,0,0,1,5.95,13.41,28.26,28.26,0,0,1,.64,16.94,20.18,20.18,0,0,1-4.46,7.82,19.73,19.73,0,0,1-6.79,4.78,3.65,3.65,0,0,1-4.48-5.34l.16-.25c2.29-3.54,3.41-6.62,3.46-9.6a27.11,27.11,0,0,0-1.92-9.84,81.13,81.13,0,0,0-5.44-11.28l-.9-1.76a20.61,20.61,0,0,1-1-2.45c-.08-.24-.21-.74-.29-1.1l-.13-.63a10.52,10.52,0,0,1-.09-1.14,8.88,8.88,0,0,1,0-1.15,9.59,9.59,0,0,1,.3-1.47,8.2,8.2,0,0,1,.49-1.32c.14-.27.28-.54.45-.81s.32-.52.5-.77.26-.32.39-.48a11.09,11.09,0,0,1,.78-.85,13.3,13.3,0,0,1,1.2-1.07,34,34,0,0,1,3.64-2.48l3.08-1.82A76.59,76.59,0,0,0,845.13,491a15.27,15.27,0,0,0,3-3.18,3.59,3.59,0,0,0,.44-.92c.06-.2,0-.13,0-.33-.21-1.2-1.3-2.88-3.86-4s-6.14-1.64-9.91-1.61a70.74,70.74,0,0,0-12,1.45c-2,.42-4.12,1-6.12,1.46l-2.46.81-2.34,1c-6.07,3.08-10.84,9-14.12,16.21a86.6,86.6,0,0,0-6.46,24c-.6,4.23-1,8.53-1.19,12.85-.09,2.16-.18,4.32-.2,6.48s0,4.4.1,6.31v.19a7.06,7.06,0,0,1-14.09,1" transform="translate(-26.95 -15.57)"/><path class="cls-2" d="M881.64,522.12a20.85,20.85,0,0,1,6.26,5.15,32.53,32.53,0,0,1,3.75,5.68A57.55,57.55,0,0,1,896,544.28a114.7,114.7,0,0,1,3.73,22.48,145.52,145.52,0,0,1,0,22.39,95.83,95.83,0,0,1-4.11,22.19,3.53,3.53,0,0,1-6.8-1.91v-.06a88.35,88.35,0,0,0,2.08-20.57A136.84,136.84,0,0,0,889.23,568a104.11,104.11,0,0,0-5-19.87,45.8,45.8,0,0,0-4.1-8.55,19.31,19.31,0,0,0-2.48-3.16,7.08,7.08,0,0,0-2.17-1.53,7.09,7.09,0,0,1,4.75-13.37,8.81,8.81,0,0,1,.89.38Z" transform="translate(-26.95 -15.57)"/><path class="cls-2" d="M943.26,545.72c-4.27,0-8.68.23-13,.63a118.43,118.43,0,0,0-12.76,1.87,58.53,58.53,0,0,0-11.84,3.62c-3.58,1.58-6.78,3.77-8.14,6.14a5.32,5.32,0,0,1-9.22-5.3,5.42,5.42,0,0,1,.37-.56l.21-.27a22.2,22.2,0,0,1,6.49-5.58,36.91,36.91,0,0,1,7-3.1,67.12,67.12,0,0,1,13.92-2.8,123.78,123.78,0,0,1,13.69-.64c4.56,0,9,.24,13.6.7a2.65,2.65,0,0,1-.25,5.29Z" transform="translate(-26.95 -15.57)"/><path class="cls-2" d="M945.88,573.61a101.37,101.37,0,0,0-24.76,3.87A73.93,73.93,0,0,0,909.74,582a48.8,48.8,0,0,0-9.63,6.57l-.13.11a5.31,5.31,0,0,1-7-8c.14-.12.27-.23.41-.33A58.29,58.29,0,0,1,906,573.48a82.06,82.06,0,0,1,13.29-3.73,107.63,107.63,0,0,1,13.41-1.56,102.61,102.61,0,0,1,13.46.13,2.65,2.65,0,0,1-.13,5.29Z" transform="translate(-26.95 -15.57)"/><path class="cls-1" d="M700.45,878.24H298.22s-.44-44.94,7.47-111.69c1.42-12,3.1-24.67,5.13-37.93,8.88-58.49,24-128.06,49.66-197.2q5.81-15.61,12.33-31.14c3.47-8.21,7.08-16.38,10.89-24.5q4.14-8.94,8.58-17.77H606.4q4.44,8.83,8.58,17.77c3.85,8.21,7.51,16.5,11,24.8q7.47,17.76,14,35.64c24.6,67.56,39.21,135.26,47.86,192.38,2,13.31,3.72,26,5.14,38.07,7.91,66.69,7.47,111.57,7.47,111.57" transform="translate(-26.95 -15.57)"/><g class="cls-3"><path class="cls-2" d="M700.45,878.24H298.22s-.44-44.94,7.47-111.69c1.42-12,3.1-24.67,5.13-37.93,3.82-25.19,8.8-52.44,15.28-80.81,21,73.4,88.7,129.29,171.61,129.29h3.6c82.69,0,150.18-55.59,171.4-128.72,6.42,28.17,11.34,55.22,15.13,80.22,2,13.31,3.72,26,5.14,38.07,7.91,66.69,7.47,111.57,7.47,111.57" transform="translate(-26.95 -15.57)"/></g><path class="cls-2" d="M662.4,594c9.26,22.34,15.83,45.61,20.83,69.17,2.75,11.73,4.93,23.57,7.3,35.38,1.14,5.92,2.06,11.87,3.09,17.8l1.51,8.9,1.34,8.94q5.47,35.72,8.3,71.77c1,12,1.65,24,2.18,36.07s.8,24,.56,36.32h0v7H495.91V871.17h6.85V885.3H291.16v-7h0c-.24-12.34.11-24.35.57-36.49s1.19-24.19,2.21-36.25q2.88-36.19,8.38-72.11l1.35-9,1.52-9c1.05-6,2-11.94,3.13-17.88,2.39-11.86,4.59-23.76,7.37-35.54a411.55,411.55,0,0,1,21-69.49,3.55,3.55,0,0,1,6.8,1.88l0,.08c-3.64,23.86-9.15,47-13.73,70.5-4.8,23.4-8.67,47-12.06,70.62-.8,5.92-1.68,11.82-2.41,17.75l-2.18,17.78c-1.28,11.87-2.55,23.74-3.59,35.64s-1.94,23.79-2.71,35.7-1.23,23.89-1.47,35.6h0l-7.07-7H502.76V885.3h-6.85V871.17H700.45l-7.07,7h0c-.24-11.65-.81-23.61-1.46-35.43s-1.67-23.7-2.7-35.53-2.29-23.66-3.56-35.47L683.49,754c-.73-5.89-1.6-11.77-2.39-17.66-3.35-23.53-7.21-47-12-70.28-4.56-23.35-10.11-46.4-13.54-70.2v-.08A3.56,3.56,0,0,1,662.4,594" transform="translate(-26.95 -15.57)"/><g class="cls-4"><path class="cls-2" d="M498.23,729.75c1.68,2.58,3.32,5.12,4.89,7.6-1.59-2.48-3.22-5-4.89-7.6" transform="translate(-26.95 -15.57)"/></g><path class="cls-1" d="M403.3,731.17c-24.92,10.09-63.49,8-89.79,4.8a28.25,28.25,0,0,1,4.71-56.27c24.59,1.15,61.48,1.69,84.85-3.49" transform="translate(-26.95 -15.57)"/><g class="cls-4"><path class="cls-2" d="M403.31,731.17c-24.93,10.1-63.5,8-89.8,4.81a28.29,28.29,0,0,1-21.61-41.14,28.16,28.16,0,0,0,21.61,14.93c26.25,3.19,64.76,5.3,89.69-4.74Z" transform="translate(-26.95 -15.57)"/></g><path class="cls-2" d="M353.74,745.66A346.76,346.76,0,0,1,312.67,743a35.32,35.32,0,0,1,5.88-70.34c36.19,1.7,65.66.52,83-3.33,3.6-.81,12.56-.84,17.78,15.94s4.61,45.19-13.37,52.47h0C391.27,743.66,372.43,745.66,353.74,745.66Zm-36.86-58.93A21.19,21.19,0,0,0,314.36,729c37.53,4.54,68.17,3,86.29-4.33h0c5-2,6.56-10.12,7-13.51,1.65-12.56-2.07-24.51-4.53-27.69-23.74,4.93-59.32,4.55-85.23,3.34Z" transform="translate(-26.95 -15.57)"/><path class="cls-1" d="M683.7,736a333.71,333.71,0,0,1-42.46,2.62c-1,0-2.06,0-3.1-.05s-2.19,0-3.27-.1c-.74,0-1.47,0-2.18-.07l-2.56-.15c-1.09-.06-2.17-.14-3.24-.22h-.08c-1.07-.08-2.16-.17-3.23-.28-.7-.06-1.41-.14-2.1-.22s-1.2-.12-1.78-.19c-.93-.11-1.86-.23-2.76-.36s-1.71-.25-2.54-.39a2.72,2.72,0,0,1-.51-.08c-1-.14-2-.32-2.93-.51s-1.93-.36-2.88-.56l-.23,0c-.54-.13-1.07-.23-1.59-.36s-1.17-.27-1.75-.43h0c-1.78-.44-3.53-.94-5.23-1.47-.91-.29-1.82-.6-2.72-.92s-1.78-.66-2.63-1l.12-26.39.12-28.57a161.57,161.57,0,0,0,20.17,2.94c21.28,1.93,46.37,1.4,64.67.55.44,0,.88,0,1.34,0A28.25,28.25,0,0,1,683.7,736" transform="translate(-26.95 -15.57)"/><g class="cls-3"><path class="cls-2" d="M683.71,736a334,334,0,0,1-42.47,2.62c-1,0-2.06,0-3.1-.05s-2.19,0-3.27-.1c-.74,0-1.47,0-2.18-.07l-2.56-.15c-1.08-.06-2.17-.14-3.24-.22h-.08c-1.07-.08-2.16-.17-3.23-.28-.7-.06-1.41-.14-2.1-.22s-1.2-.12-1.78-.19c-.93-.11-1.86-.23-2.75-.36s-1.72-.25-2.55-.39a2.72,2.72,0,0,1-.51-.08c-1-.14-2-.32-2.92-.51s-1.94-.36-2.88-.56l-.24,0c-.53-.13-1.07-.23-1.59-.36s-1.16-.27-1.74-.43h0c-1.78-.44-3.53-.94-5.22-1.47-.92-.29-1.83-.6-2.73-.92s-1.77-.66-2.62-1l.11-26.38v-1.9c.8.33,1.65.66,2.5,1s1.81.62,2.73.91c1.69.53,3.44,1,5.22,1.48h0l1.74.42c.52.13,1.06.24,1.59.36l.24,0q1.41.3,2.88.57c.95.19,1.93.36,2.92.5a2.72,2.72,0,0,0,.51.08q1.25.21,2.55.39c.89.13,1.82.25,2.75.36.58.07,1.18.15,1.78.19s1.4.16,2.1.22c1.07.11,2.16.21,3.23.29h.08l3.24.22,2.56.14,2.18.08c1.08,0,2.18.08,3.27.09s2.06,0,3.1,0a336,336,0,0,0,42.47-2.61,28.14,28.14,0,0,0,21-13.88,28.28,28.28,0,0,1-21,42.21" transform="translate(-26.95 -15.57)"/></g><path class="cls-2" d="M643.48,745.66c-18.69,0-37.53-2-52.21-7.94h0c-18-7.28-18.61-35.61-13.37-52.47s14.18-16.74,17.78-15.94c17.33,3.85,46.8,5,83,3.33A35.32,35.32,0,0,1,684.55,743,346.76,346.76,0,0,1,643.48,745.66ZM594.1,683.42c-2.46,3.18-6.18,15.12-4.53,27.69.44,3.39,2,11.49,7,13.51h0c18.12,7.34,48.76,8.87,86.29,4.33a21.18,21.18,0,0,0-3.53-42.19C653.41,688,617.84,688.35,594.1,683.42Z" transform="translate(-26.95 -15.57)"/><path class="cls-1" d="M603.55,658.05v88.07a29.8,29.8,0,0,1-29.71,29.72H411.63a29.8,29.8,0,0,1-29.69-29.72V658.05a29.78,29.78,0,0,1,29.69-29.7H573.84a29.77,29.77,0,0,1,29.71,29.7" transform="translate(-26.95 -15.57)"/><g class="cls-3"><path class="cls-2" d="M603.55,658.05v88.08a29.8,29.8,0,0,1-29.72,29.7H411.63a29.78,29.78,0,0,1-29.69-29.69v-33c17.37,33.79,76.42,47.07,125,42.15,10.85-1.1,18.61-11.4,16-22a42.16,42.16,0,0,1-1.18-10c0-19.22,12.73-34.79,28.43-34.79,15.18,0,27.61,14.57,28.42,32.91C598.08,696,599.13,662,597.5,640.13a29.54,29.54,0,0,1,6,17.92" transform="translate(-26.95 -15.57)"/></g><path class="cls-2" d="M573.85,782.9H411.64a36.81,36.81,0,0,1-36.77-36.77V658.05a36.81,36.81,0,0,1,36.77-36.77H573.85a36.8,36.8,0,0,1,36.76,36.77v88.08A36.8,36.8,0,0,1,573.85,782.9ZM411.64,635.41A22.66,22.66,0,0,0,389,658.05v88.08a22.66,22.66,0,0,0,22.64,22.64H573.85a22.66,22.66,0,0,0,22.63-22.64V658.05a22.66,22.66,0,0,0-22.63-22.64Z" transform="translate(-26.95 -15.57)"/><path class="cls-5" d="M575.82,702.09a25.62,25.62,0,1,1-25.62-25.61,25.61,25.61,0,0,1,25.62,25.61" transform="translate(-26.95 -15.57)"/><path class="cls-1" d="M575.82,702.1a23.9,23.9,0,0,1-.33,4.08,25.61,25.61,0,0,0-50.57,0,23.9,23.9,0,0,1-.34-4.08,25.62,25.62,0,1,1,51.24,0" transform="translate(-26.95 -15.57)"/><g class="cls-4"><path class="cls-2" d="M575.81,702.09a25.61,25.61,0,1,1-51.22,0,25,25,0,0,1,1.76-9.27,25.59,25.59,0,0,0,47.71,0,25,25,0,0,1,1.75,9.27" transform="translate(-26.95 -15.57)"/></g><path class="cls-2" d="M550.21,733a30.91,30.91,0,1,1,30.91-30.91A30.95,30.95,0,0,1,550.21,733Zm0-51.22a20.32,20.32,0,1,0,20.31,20.31A20.33,20.33,0,0,0,550.21,681.78Z" transform="translate(-26.95 -15.57)"/><path class="cls-2" d="M477.62,781.14a5.3,5.3,0,0,1-5.3-5.3V733.33a35.58,35.58,0,0,0-14.11-28.28,46.2,46.2,0,0,1-18.33-36.74v-40a5.3,5.3,0,0,1,10.59,0v40a35.58,35.58,0,0,0,14.11,28.28,46.21,46.21,0,0,1,18.34,36.74v42.51A5.31,5.31,0,0,1,477.62,781.14Z" transform="translate(-26.95 -15.57)"/><path class="cls-1" d="M752.42,356.21h0a5.19,5.19,0,0,1-5.22-5.16l-.84-149.62a5.19,5.19,0,0,1,5.16-5.22,54.49,54.49,0,0,1,54.8,54.19l.29,51a54.49,54.49,0,0,1-54.19,54.79" transform="translate(-26.95 -15.57)"/><path class="cls-2" d="M752.39,357.48a6.45,6.45,0,0,1-6.46-6.42l-.84-149.62a6.47,6.47,0,0,1,6.43-6.5h.31a55.83,55.83,0,0,1,55.76,55.45l.29,51a55.83,55.83,0,0,1-55.45,56.07h0Zm-.56-160h-.3a3.93,3.93,0,0,0-3.9,4L748.47,351a3.91,3.91,0,0,0,3.92,3.9h0a53.28,53.28,0,0,0,52.93-53.52l-.29-51A53.28,53.28,0,0,0,751.83,197.48Z" transform="translate(-26.95 -15.57)"/><g class="cls-3"><path class="cls-2" d="M806.47,277.49l.14,23.93a54.52,54.52,0,0,1-54.19,54.81,5.2,5.2,0,0,1-5.22-5.18L747,311.27a5.21,5.21,0,0,0,4.74,3.06l3.55,0a54.45,54.45,0,0,0,51.22-36.81" transform="translate(-26.95 -15.57)"/></g><path class="cls-2" d="M752.39,363.28a12.26,12.26,0,0,1-12.26-12.19l-.84-149.62a12.27,12.27,0,0,1,12.19-12.32h.35a61.63,61.63,0,0,1,61.56,61.21l.28,51a61.63,61.63,0,0,1-61.21,61.9h-.07Zm0-14.13Zm1-145.85.82,145.8a47.5,47.5,0,0,0,45.3-47.64l-.29-51A47.5,47.5,0,0,0,753.43,203.3Z" transform="translate(-26.95 -15.57)"/><path class="cls-1" d="M257.68,199h0a5.19,5.19,0,0,1,5.22,5.16l.84,149.62a5.19,5.19,0,0,1-5.16,5.22,54.49,54.49,0,0,1-54.8-54.18l-.29-51A54.49,54.49,0,0,1,257.68,199" transform="translate(-26.95 -15.57)"/><path class="cls-2" d="M258.27,360.26a55.82,55.82,0,0,1-55.76-55.45l-.29-51a55.83,55.83,0,0,1,55.45-56.07h0a6.5,6.5,0,0,1,4.58,1.87,6.4,6.4,0,0,1,1.92,4.55L265,353.76a6.47,6.47,0,0,1-6.43,6.5Zm-.59-160a53.28,53.28,0,0,0-52.92,53.52l.29,51a53.28,53.28,0,0,0,53.22,52.92h.3a3.93,3.93,0,0,0,3.9-4l-.84-149.61a3.91,3.91,0,0,0-1.17-2.77,3.78,3.78,0,0,0-2.78-1.13Z" transform="translate(-26.95 -15.57)"/><g class="cls-3"><path class="cls-2" d="M263.52,312.26l.23,41.51a5.2,5.2,0,0,1-5.18,5.22,54.47,54.47,0,0,1-54.79-54.17l-.12-21.5A54.52,54.52,0,0,0,253.48,315l5.46,0a5.25,5.25,0,0,0,4.58-2.75" transform="translate(-26.95 -15.57)"/></g><path class="cls-2" d="M258.27,366.06a61.63,61.63,0,0,1-61.56-61.21l-.29-51a61.66,61.66,0,0,1,61.22-61.91h0a12.41,12.41,0,0,1,8.68,3.54,12.16,12.16,0,0,1,3.64,8.65l.85,149.62a12.29,12.29,0,0,1-12.19,12.33Zm-2.43-160a47.49,47.49,0,0,0-45.29,47.65l.29,51a47.5,47.5,0,0,0,45.83,47.13Zm1.88,0h0Z" transform="translate(-26.95 -15.57)"/><g class="cls-3"><path class="cls-2" d="M686.41,481.66c-48.71,61.23-121.28,97.6-200.11,91.83-68.6-5-128.77-41-170.31-94.86A80.68,80.68,0,0,1,365,462H633.64a80.85,80.85,0,0,1,52.77,19.62" transform="translate(-26.95 -15.57)"/></g><path class="cls-1" d="M759.5,294.25c-9.2,140.52-130.56,247-271.07,237.77S241.46,401.46,250.66,261,381.22,14,521.73,23.18s247,130.56,237.77,271.07" transform="translate(-26.95 -15.57)"/><path class="cls-2" d="M505.45,533.85c-5.69,0-11.38-.19-17.11-.57A256.23,256.23,0,0,1,336.12,85,256.23,256.23,0,0,1,674,470.23,254.35,254.35,0,0,1,505.45,533.85ZM504.91,23.9C372.5,23.9,260.7,127.05,251.93,261a253.69,253.69,0,1,0,506.3,33.14l1.27.08-1.27-.08A253.69,253.69,0,0,0,521.65,24.45C516.05,24.08,510.45,23.9,504.91,23.9Z" transform="translate(-26.95 -15.57)"/><g class="cls-3"><path class="cls-2" d="M759.36,258.88a253,253,0,0,1,.14,35.38c-9.22,140.5-130.57,247-271.08,237.77S241.47,401.45,250.65,261c.26-4,.62-8.08,1.08-12,9,125,109.07,227.28,237.63,235.7,136.47,8.92,254.85-91.23,270-225.72" transform="translate(-26.95 -15.57)"/></g><path class="cls-2" d="M505.46,539.64q-8.73,0-17.49-.57A262,262,0,0,1,243.61,260.49C253.05,116.31,378,6.7,522.2,16.13A262,262,0,0,1,766.55,294.72h0A262.06,262.06,0,0,1,505.46,539.64ZM504.91,29.7c-129.38,0-238.63,100.79-247.2,231.71A247.9,247.9,0,1,0,521.27,30.23C515.8,29.87,510.33,29.7,504.91,29.7ZM759.5,294.25h0Z" transform="translate(-26.95 -15.57)"/><path class="cls-2" d="M758.26,300.74c-2.51,49.82-21,95.27-50.6,132.16-22.18,27.65-110,73.58-215.29,69.23-97.66-4-183.85-60.54-203.15-90.28-25.74-39.67-39.58-86.74-37.08-136.57,6.64-131.87,122.68-180.83,262.44-173.8s250.31,67.39,243.68,199.26" transform="translate(-26.95 -15.57)"/><g class="cls-6"><path class="cls-1" d="M645.08,271.25c-5.67,24.26,4,47.26,21.57,51.37s36.43-12.23,42.1-36.5-4-47.26-21.57-51.37-36.44,12.23-42.1,36.5" transform="translate(-26.95 -15.57)"/></g><g class="cls-6"><path class="cls-1" d="M615.84,359.54c-4.12,10.67,0,22.19,9.13,25.72s19.92-2.25,24-12.92,0-22.19-9.13-25.72-19.91,2.25-24,12.92" transform="translate(-26.95 -15.57)"/></g><g class="cls-4"><path class="cls-7" d="M715.23,175.24c29.45,31.08,45.68,72.53,43,125.49-2.5,49.84-21,95.28-50.58,132.17-22.19,27.65-110,73.58-215.31,69.24-37.18-1.53-72.7-10.67-103.5-23.07,129.57,2.58,236.53-53.84,264-88.13,37.56-46.82,61-104.51,64.21-167.74a259,259,0,0,0-1.88-48" transform="translate(-26.95 -15.57)"/></g><path class="cls-2" d="M742.29,191.06a7,7,0,0,1-4.75-1.85l-.68-.62-.53-.81C696.56,125.64,615.57,87.07,514.14,82c-102-5.13-186.41,26.24-231.61,86.06l-.67.77a7.06,7.06,0,0,1-10.46-9.47c48.09-63.49,136.81-96.83,243.45-91.47,106,5.33,191,46.22,233.29,112.18a7.07,7.07,0,0,1-5.85,11Z" transform="translate(-26.95 -15.57)"/><g class="cls-6"><path class="cls-1" d="M305,356.58s-34.3-132.14,38.41-180.45,173.57-43,170.89-36.68c0,0-113,21.42-161.16,107.5C316.06,313.32,305,356.58,305,356.58" transform="translate(-26.95 -15.57)"/></g><path class="cls-1" d="M495.74,940.7S342.23,958.1,274,899.47c-93.22-80.1-13.28-180.48,56-153.74C390.25,769,415,787.32,522.13,804.87,611.87,819.58,689,911.71,624.56,965.18c-45.46,37.75-128.82-24.48-128.82-24.48" transform="translate(-26.95 -15.57)"/><g class="cls-3"><path class="cls-2" d="M624.56,965.18c-45.47,37.75-128.82-24.47-128.82-24.47S342.23,958.1,274,899.47c-26.87-23.09-39.36-47.88-41.85-70.8a154.19,154.19,0,0,0,16.07,15.9C316.45,903.21,470,885.8,470,885.8s83.35,62.25,128.81,24.49c17.78-14.77,24.78-32.47,23.69-50.69,29.88,33.75,38.07,75.7,2.09,105.58" transform="translate(-26.95 -15.57)"/></g><path class="cls-2" d="M588.19,984.43c-40.34,0-83.86-29-94.4-36.42-21.83,2.15-158.9,13.1-224.4-43.18-53.49-46-51.86-96.93-32.5-129.29,20.65-34.52,60.86-49.82,95.61-36.4,13.38,5.16,24.94,10.05,36.12,14.78,38.62,16.32,72,30.43,154.65,44,59.91,9.81,116.78,54.14,129.49,100.91,7.45,27.43-1,52.93-23.68,71.8C617,980.62,602.81,984.43,588.19,984.43Zm-90.47-51.06L500,935c.62.45,47.93,35.26,88.12,35.27,11.71,0,22.8-2.95,32-10.57,18.48-15.35,25.08-35.13,19.08-57.22-11.37-41.86-63.27-81.69-118.14-90.68C436.64,798,402.57,783.61,363.12,766.93c-11.08-4.68-22.54-9.53-35.71-14.61-28.32-10.94-61.29,1.88-78.39,30.47-16.41,27.43-17.26,71.08,29.58,111.32C343.69,950,493.44,933.85,495,933.68Z" transform="translate(-26.95 -15.57)"/><path class="cls-2" d="M352.35,941.38A7.07,7.07,0,0,1,349,928.07c62.75-33.44,44.92-151.18,44.73-152.37a7.07,7.07,0,0,1,14-2.2c.83,5.24,19.49,128.91-52,167A7,7,0,0,1,352.35,941.38Z" transform="translate(-26.95 -15.57)"/><path class="cls-1" d="M514.41,940.7s153.52,17.4,221.75-41.23c93.23-80.1,13.29-180.48-56-153.74C619.91,769,595.11,787.32,488,804.87,398.28,819.58,321.2,911.71,385.59,965.18c45.46,37.75,128.82-24.48,128.82-24.48" transform="translate(-26.95 -15.57)"/><g class="cls-3"><path class="cls-2" d="M736.16,899.47c-68.23,58.63-221.74,41.24-221.74,41.24s-83.37,62.22-128.83,24.47c-22.09-18.35-27.53-41.25-21.5-64,3.29,11.11,6.51,28.2,18.09,37.19,35.31,27.4,74.35,15.27,98.83-6.44,18.57-16.47,15.54-30,27.46-36.67,13.38-7.52,32.35,20.28,74.12,22.46,78.57,4.09,132.16-19.19,157.44-45a139.51,139.51,0,0,0,36.74-69.16c6.15,29-3.54,64.07-40.61,95.93" transform="translate(-26.95 -15.57)"/></g><path class="cls-2" d="M422,984.43c-14.62,0-28.82-3.8-40.88-13.82-22.73-18.87-31.14-44.37-23.69-71.8C370.1,852,427,807.71,486.88,797.9c82.68-13.56,116-27.66,154.66-44,11.18-4.73,22.74-9.62,36.11-14.78,34.76-13.43,75,1.89,95.61,36.4,19.37,32.36,21,83.33-32.49,129.29-65.5,56.28-202.58,45.33-224.41,43.18C505.83,955.47,462.3,984.43,422,984.43Zm281.68-236a57.94,57.94,0,0,0-20.9,3.88c-13.17,5.08-24.62,9.93-35.7,14.61-39.45,16.68-73.53,31.09-157.88,44.91-54.87,9-106.76,48.82-118.13,90.68-6,22.09.59,41.87,19.08,57.22,40.64,33.75,119.29-24.11,120.08-24.7l2.24-1.67,2.78.31c1.5.17,151.26,16.36,216.35-39.57,46.84-40.24,46-83.89,29.58-111.32C748.14,761.06,726,748.44,703.64,748.44Z" transform="translate(-26.95 -15.57)"/><path class="cls-2" d="M657.8,941.38a7,7,0,0,1-3.32-.84c-71.52-38.13-52.86-161.8-52-167a7.07,7.07,0,1,1,14,2.2c-.19,1.19-17.92,119,44.73,152.37a7.07,7.07,0,0,1-3.33,13.31Z" transform="translate(-26.95 -15.57)"/></svg>