<svg id="A" xmlns="http://www.w3.org/2000/svg" viewBox="0 0 222.25 253.26"><defs><style>.cls-1{fill:#006eba;}.cls-2,.cls-3{fill:#fff;}.cls-2{opacity:0.2;}</style></defs><polygon class="cls-1" points="111.13 0 0 0 19.64 225.87 111.13 253.26 202.61 225.87 222.25 0 111.13 0"/><polygon class="cls-2" points="111.13 19.25 111.13 233.11 186.37 210.58 203 19.25 111.13 19.25"/><polygon class="cls-3" points="180.93 47.94 151.78 47.94 126.1 47.94 41.27 47.94 43.76 76.88 101.9 76.88 46.17 104.87 48.6 133.05 77.75 133.05 144.45 133.05 141.39 168.66 111.13 177.08 80.81 168.64 78.91 146.49 49.76 146.49 50.95 160.33 53.44 189.27 60.37 191.2 83.31 197.58 111.13 205.32 138.9 197.6 161.88 191.2 168.76 189.29 171.25 160.34 173.61 133.05 176.03 104.87 146.88 104.87 122.08 104.87 178.44 76.88 180.93 47.94"/></svg>