<svg id="A" xmlns="http://www.w3.org/2000/svg" viewBox="0 0 231.12 253.27"><defs><style>.cls-1{fill:#868686;}.cls-2{fill:#fff;}</style></defs><path class="cls-1" d="M36.91,212.76a20.47,20.47,0,0,0,8,8l94.47,53.09a21.87,21.87,0,0,0,14.1,2.5c.18,0,.35-.07.53-.1l-75-129Z" transform="translate(-34.44 -23.37)"/><path class="cls-1" d="M40.67,82.27a19.8,19.8,0,0,0-6.23,14.35V203.34a19.44,19.44,0,0,0,2.47,9.42l42-65.54L41,82Z" transform="translate(-34.44 -23.37)"/><path class="cls-1" d="M255.89,203.29l-32.71-56.23L151.26,23.4a21.85,21.85,0,0,0-11.93,2.7l-60.47,34-34,19.11A21.11,21.11,0,0,0,41,82l37.93,65.21,75,129a21.84,21.84,0,0,0,6.71-2.4l94.47-53.09a20.58,20.58,0,0,0,7.08-6.59Z" transform="translate(-34.44 -23.37)"/><path class="cls-1" d="M262.35,86a20.52,20.52,0,0,0-7.21-6.78L160.67,26.1a21.75,21.75,0,0,0-9.41-2.7l71.92,123.66Z" transform="translate(-34.44 -23.37)"/><path class="cls-1" d="M262.35,86l-39.17,61.09,32.71,56.23,6.33,10.89a19.41,19.41,0,0,0,3.34-10.84V96.62A19.48,19.48,0,0,0,262.35,86Z" transform="translate(-34.44 -23.37)"/><path class="cls-2" d="M234.8,196.65c-6.17,1.56-10,.06-13.41-5.08L197,157.89l-3.52-4.67-28.43,38.46c-3.25,4.63-6.66,6.65-12.72,5l36.41-48.88-33.9-44.15c5.83-1.13,9.86-.55,13.44,4.67l25.25,34.1L219,108.51c3.26-4.62,6.76-6.38,12.61-4.68l-13.14,17.43-17.81,23.19c-2.12,2.65-1.83,4.46.12,7ZM65.24,147l3-14.65c8.11-29,41.34-41,64.26-23.13,13.39,10.54,16.72,25.44,16.06,42.14H73c-1.13,30,20.5,48.18,48.08,38.93,9.67-3.25,15.37-10.82,18.22-20.3,1.44-4.75,3.84-5.49,8.3-4.13-2.28,11.85-7.42,21.75-18.28,27.94-16.24,9.28-39.41,6.28-51.6-6.61-7.26-7.48-10.26-16.95-11.6-27.09-.22-1.67-.64-3.27-1-4.87q0-4.12,0-8.23Zm7.94-2H141.4c-.44-21.73-14-37.16-32.46-37.29C88.64,107.53,74.06,122.59,73.18,145Z" transform="translate(-34.44 -23.37)"/></svg>