<svg id="A" xmlns="http://www.w3.org/2000/svg" viewBox="0 0 253.37 253.27"><defs><style>.cls-1{fill:#f03c2e;}</style></defs><path class="cls-1" d="M271.9,138.76,161.29,28.15a16.31,16.31,0,0,0-23.07,0h0l-23,23,29.14,29.13a19.21,19.21,0,0,1,19.94,4.65,19.42,19.42,0,0,1,4.6,20.06L197,133A19.38,19.38,0,1,1,185.37,144l-26.19-26.19v68.92a19.9,19.9,0,0,1,5.15,3.67,19.42,19.42,0,1,1-27.46,27.46h0a19.4,19.4,0,0,1,0-27.43l0,0a18.65,18.65,0,0,1,6.36-4.23V116.58a19.41,19.41,0,0,1-10.54-25.46L104,62.4,28.1,138.17a16.3,16.3,0,0,0,0,23.06v0l110.62,110.6a16.31,16.31,0,0,0,23.07,0h0L271.9,161.92a16.31,16.31,0,0,0,0-23.07h0" transform="translate(-23.32 -23.37)"/></svg>