<svg id="A" xmlns="http://www.w3.org/2000/svg" viewBox="0 0 253.26 249.07"><defs><style>.cls-1{fill:#fff;}</style></defs><path class="cls-1" d="M253.26,126.62A126.63,126.63,0,1,0,94.31,249.07a7.1,7.1,0,0,0,1.49-4.3V221.83c-20.39,3.06-33.13-1-39.24-16.82C54,197.88,48.4,192.78,43.3,189.73c-3-2-3.56-4.59,0-5.1,16.33-3,20.39,17.84,31.09,21.4,7.65,2.55,17.33,1.53,22.43-1.52.51-6.63,5.09-12.24,9.17-15.29-27-2.55-43.32-11.73-52-27-6.12-11.72-7.65-20.38-7.65-34.14.51-17.33,5.61-24,13.25-33.13-5.6-19.87,2-33.63,2-33.63s11.72-2.55,34.15,13.25c12.23-5.1,44.84-5.61,60.13-1,9.19-6.12,26.5-14.78,33.64-12.23,2,2.55,6.12,11.21,2.56,30.58,2.55,4.58,14.78,13.25,14.78,38.73,0,9.17-1,21.4-6.12,31.59-8.15,17.84-25,24.47-52,27,8.66,5.6,11.21,12.23,11.21,30.57v25a7.35,7.35,0,0,0,1,3.71A126.64,126.64,0,0,0,253.26,126.62Z" transform="translate(-0.01 0)"/></svg>