<svg id="Capa_1" data-name="Capa 1" xmlns="http://www.w3.org/2000/svg" viewBox="0 0 288.28 283.57"><defs><style>.cls-1{fill:#fff;stroke:#fff;stroke-miterlimit:10;stroke-width:0.5px;}</style></defs><path class="cls-1" d="M293.89,152.37A143.89,143.89,0,1,0,113.28,291.52a8.16,8.16,0,0,0,1.68-4.9V260.56C91.8,264,77.33,259.4,70.38,241.45c-2.9-8.11-9.27-13.9-15.06-17.37-3.48-2.32-4-5.21,0-5.79,18.53-3.48,23.16,20.27,35.32,24.32,8.69,2.9,19.69,1.74,25.48-1.74.58-7.53,5.79-13.9,10.43-17.37-30.7-2.9-49.22-13.32-59.07-30.69-7-13.32-8.69-23.17-8.69-38.8.58-19.69,6.37-27.22,15.06-37.64-6.37-22.59,2.32-38.22,2.32-38.22S89.49,75.25,115,93.21c13.9-5.8,51-6.37,68.34-1.16,10.42-7,30.11-16.8,38.22-13.9,2.31,2.89,6.95,12.74,2.89,34.74,2.9,5.22,16.8,15.06,16.8,44,0,10.43-1.16,24.33-7,35.91-9.27,20.27-28.38,27.79-59.07,30.69,9.85,6.37,12.74,13.9,12.74,34.75v28.37a8.46,8.46,0,0,0,1.17,4.22A143.92,143.92,0,0,0,293.89,152.37Z" transform="translate(-5.86 -8.23)"/></svg>