<svg id="A" xmlns="http://www.w3.org/2000/svg" viewBox="0 0 253.27 253.27"><defs><style>.cls-1{fill:#171515;}.cls-2{fill:#fff;}</style></defs><path class="cls-1" d="M276.63,150A126.63,126.63,0,1,0,117.68,272.45a7.14,7.14,0,0,0,1.49-4.3V245.21c-20.39,3.06-33.13-1-39.24-16.82-2.55-7.13-8.16-12.23-13.26-15.28-3.05-2-3.56-4.59,0-5.1C83,205,87.06,225.85,97.76,229.41c7.65,2.55,17.33,1.53,22.43-1.52.51-6.63,5.09-12.24,9.17-15.29-27-2.55-43.32-11.73-52-27-6.12-11.72-7.65-20.38-7.65-34.14.51-17.33,5.61-24,13.25-33.13-5.6-19.87,2-33.63,2-33.63s11.72-2.55,34.15,13.25c12.23-5.1,44.84-5.61,60.13-1,9.18-6.12,26.5-14.78,33.64-12.23,2,2.55,6.12,11.21,2.55,30.58,2.55,4.58,14.78,13.25,14.78,38.73,0,9.17-1,21.4-6.12,31.59-8.15,17.84-25,24.47-52,27,8.66,5.6,11.21,12.23,11.21,30.57v25a7.49,7.49,0,0,0,1,3.71A126.64,126.64,0,0,0,276.63,150Z" transform="translate(-23.37 -23.37)"/><path class="cls-2" d="M183.38,243.17c0-18.34-2.55-25-11.21-30.57,27-2.55,43.83-9.18,52-27,5.1-10.19,6.12-22.42,6.12-31.59,0-25.48-12.23-34.15-14.78-38.73,3.57-19.37-.51-28-2.55-30.58-7.14-2.55-24.46,6.11-33.64,12.23-15.29-4.59-47.9-4.08-60.13,1C96.74,82.13,85,84.68,85,84.68s-7.64,13.76-2,33.63c-7.64,9.18-12.74,15.8-13.25,33.13,0,13.76,1.53,22.42,7.65,34.14,8.66,15.29,25,24.47,52,27-4.08,3.05-8.66,8.66-9.17,15.29-5.1,3.05-14.78,4.07-22.43,1.52C87.06,225.85,83,205,66.67,208c-3.56.51-3.05,3.06,0,5.1,5.1,3,10.71,8.15,13.26,15.28,6.11,15.8,18.85,19.88,39.24,16.82v22.94a7.14,7.14,0,0,1-1.49,4.3,126.76,126.76,0,0,0,66.73-.59,7.49,7.49,0,0,1-1-3.71Z" transform="translate(-23.37 -23.37)"/></svg>