<svg id="A" xmlns="http://www.w3.org/2000/svg" viewBox="0 0 222.25 253.26"><defs><style>.cls-1{fill:none;}.cls-2{fill:#c72f08;}.cls-3,.cls-4{fill:#fff;}.cls-3{opacity:0.2;}</style></defs><polygon class="cls-1" points="112.26 203.36 67.88 190.96 112.26 203.36 112.26 203.36"/><polygon class="cls-2" points="111.13 0 0 0 19.64 225.87 111.13 253.26 202.61 225.87 222.25 0 111.13 0"/><polygon class="cls-3" points="111.13 19.25 111.13 233.11 186.37 210.58 203 19.25 111.13 19.25"/><polygon class="cls-4" points="164.55 76.98 178.44 76.98 180.96 47.98 164.55 47.98 95.03 47.98 70.38 47.98 63.06 47.98 54.2 47.98 41.14 47.98 43.67 76.98 46.19 105.98 48.71 134.98 77.94 134.98 95.03 134.98 144.34 134.98 141.93 162.66 141.39 168.91 111.14 177.33 80.89 168.91 80.35 162.66 78.94 146.53 49.71 146.53 53.42 189.15 66.77 192.88 111.13 205.28 111.13 205.28 111.14 205.28 111.15 205.28 111.15 205.28 155.51 192.88 168.86 189.15 175.44 113.43 176.09 105.98 146.95 105.98 146.86 105.98 95.03 105.98 75.42 105.98 72.9 76.98 95.03 76.98 164.55 76.98"/></svg>