<svg id="A" xmlns="http://www.w3.org/2000/svg" viewBox="0 0 260.48 253.27"><defs><style>.cls-1{fill:#300;}.cls-2{fill:#ff9a00;}</style></defs><rect class="cls-1" width="260.48" height="253.27" rx="9.74"/><path class="cls-2" d="M105.57,171.31l-12.21,34H77.67L117.59,97.23H135.9L176,205.31H159.78l-12.55-34Zm38.52-10.9L132.58,129.3c-2.61-7.06-4.35-13.47-6.1-19.73h-.35c-1.74,6.42-3.66,13-5.92,19.57L108.7,160.41Z" transform="translate(-19.76 -23.37)"/><path class="cls-2" d="M182.76,210H156.49l-12.55-34H108.88L96.67,210H70.91l43.4-117.51h24.86Zm-19.7-9.42h6.16l-36.6-98.66H120.87L84.44,200.6h5.61l12.2-34h48.26Zm-12.21-35.48H102l13.84-37.61c1.9-5.53,3.76-11.66,5.8-19.17l.94-3.48h7.18l1.66,4.69c1.6,5.75,3.25,11.7,5.63,18.11Zm-35.39-9.42h21.87l-9.16-24.77c-.67-1.79-1.28-3.54-1.85-5.26-.55,1.72-1.1,3.38-1.66,5Z" transform="translate(-19.76 -23.37)"/><path class="cls-2" d="M216.59,98c.18,4.82-3.66,8.66-9.76,8.66-5.4,0-9.24-3.84-9.24-8.66,0-5,4-8.82,9.59-8.82C212.93,89.16,216.59,93,216.59,98Z" transform="translate(-19.76 -23.37)"/><path class="cls-2" d="M206.83,111.35c-7.82,0-14-5.87-14-13.37,0-7.71,6.15-13.53,14.3-13.53S221.26,90.1,221.3,97.9a12.51,12.51,0,0,1-3.5,9.15A15,15,0,0,1,206.83,111.35Zm.35-17.48c-2.87,0-4.88,1.69-4.88,4.11s1.87,4,4.53,4a5.73,5.73,0,0,0,4.19-1.42,3.11,3.11,0,0,0,.87-2.36V98C211.88,95.41,210.12,93.87,207.18,93.87Z" transform="translate(-19.76 -23.37)"/><rect class="cls-2" x="179.75" y="104.33" width="15.34" height="77.62"/><path class="cls-2" d="M219.56,210H194.8V123h24.76Zm-15.34-9.42h5.92V132.4h-5.92Z" transform="translate(-19.76 -23.37)"/></svg>