<svg id="A" xmlns="http://www.w3.org/2000/svg" viewBox="0 0 222.25 253.26"><defs><style>.cls-1{fill:#c2a30b;}.cls-2,.cls-3{fill:#fff;}.cls-2{opacity:0.2;}</style></defs><polygon class="cls-1" points="111.13 0 0 0 19.64 225.87 111.13 253.26 202.61 225.87 222.25 0 111.13 0"/><polygon class="cls-2" points="111.13 19.25 111.13 233.11 186.37 210.58 203 19.25 111.13 19.25"/><polygon class="cls-3" points="76.56 47.36 76.56 172.61 33.92 159.84 33.92 185.68 76.56 198.45 101.46 205.9 101.46 180.06 101.46 47.36 76.56 47.36"/><polyline class="cls-3" points="145.69 109.51 145.69 71.74 165.67 71.74 188.48 71.74 190.6 47.36 167.79 47.36 145.69 47.36 120.79 47.36 120.79 116.96 120.79 142.8 145.48 138.23 160.11 135.65 157.2 169.16 145.69 172.61 120.79 180.06 120.79 205.9 145.69 198.45 154.89 195.69 178.31 188.68 180.62 162.15 183.95 123.89 185.59 104.98"/></svg>