<svg xmlns="http://www.w3.org/2000/svg" viewBox="0 0 1000 1000"><defs><style>.cls-1{fill:#fff;}</style></defs><g id="Capa_1" data-name="Capa 1"><path class="cls-1" d="M500,0h0C223.86,0,0,223.86,0,500H0c0,276.14,223.86,500,500,500h0c276.14,0,500-223.86,500-500h0C1000,223.86,776.14,0,500,0ZM361.52,749.27H250.73V389.21H361.52Zm-55.4-387.75c-33.23,0-55.39-24.93-55.39-52.63,0-30.47,22.16-58.16,55.39-58.16s55.4,24.92,55.4,55.39S342.13,361.52,306.12,361.52ZM749.27,749.27H638.49V558.16c0-44.31-16.62-77.55-55.4-77.55-30.47,0-44.31,24.93-52.62,44.32-2.77,8.31-2.77,16.62-2.77,27.69V749.27H416.91V511.08c0-41.55-2.77-77.55-2.77-108h99.71l5.54,47.09h2.77c13.85-22.16,47.08-55.4,105.25-55.4,69.24,0,121.86,47.09,121.86,149.57Z"/></g></svg>