<svg id="A" xmlns="http://www.w3.org/2000/svg" viewBox="0 0 242.37 253.27"><defs><style>.cls-1{fill:#413020;}.cls-2{fill:#83c563;}.cls-3{fill:#599636;}.cls-4{fill:#6cac48;}.cls-5{fill:#c2bfbf;}</style></defs><path class="cls-1" d="M213.94,219.06c-20.84,27.62-47.16,47.17-63.94,57.33-16.78-10.16-43.1-29.71-63.94-57.33C34.87,151.19,36.4,80.41,38.16,59.74a2.61,2.61,0,0,1,1.41-2.06c8.16-4.42,25.85-12.61,53.69-18.51,28.06-6,46.76-7.34,56.74-7.56,10,.22,28.68,1.6,56.74,7.56,27.84,5.9,45.53,14.09,53.69,18.51a2.61,2.61,0,0,1,1.41,2.06C263.6,80.41,265.13,151.19,213.94,219.06Z" transform="translate(-28.81 -23.37)"/><path class="cls-2" d="M270.8,64.7a19.9,19.9,0,0,0-11.22-16.47c-9.81-4.9-26.87-12-51.76-17.23C180,25.09,161.05,23.58,150,23.37,139,23.58,120,25.09,92.18,31c-24.89,5.27-42,12.33-51.76,17.23A19.9,19.9,0,0,0,29.2,64.7C27.58,90.17,29,157.19,78.11,222.35a233.93,233.93,0,0,0,46.6,45.91,42.39,42.39,0,0,0,50.58,0,233.93,233.93,0,0,0,46.6-45.91C271,157.19,272.42,90.17,270.8,64.7ZM212.13,216.27a219,219,0,0,1-34.74,36.07,42.79,42.79,0,0,1-54.78,0,219,219,0,0,1-34.74-36.07A232.9,232.9,0,0,1,40.77,72.2,20,20,0,0,1,53.15,54.41,219.69,219.69,0,0,1,94.87,41.46c27.26-5.78,45.44-7.13,55.13-7.34,9.69.21,27.87,1.56,55.13,7.34a219.69,219.69,0,0,1,41.72,12.95A20,20,0,0,1,259.23,72.2,232.9,232.9,0,0,1,212.13,216.27Z" transform="translate(-28.81 -23.37)"/><path class="cls-3" d="M149.45,61.46l4.69,8.8a26.22,26.22,0,0,0,3.54,4.41,122.4,122.4,0,0,1,11,12.44c7.94,10.43,13.3,22,17.13,34.55a85,85,0,0,1,3.63,23.45c.39,23.73-7.75,44.12-24.16,61.06a69.58,69.58,0,0,1-8.62,7.37c-1.62,0-2.39-1.25-3.06-2.4a19.72,19.72,0,0,1-2.4-6.89,33.86,33.86,0,0,1-.77-8.71V194.2C150.31,193.92,148.88,62.13,149.45,61.46Z" transform="translate(-28.81 -23.37)"/><path class="cls-4" d="M149.45,61.17c-.19-.39-.38-.1-.58.09a8.8,8.8,0,0,1-1.62,5.27A25,25,0,0,1,143,70.74,91.82,91.82,0,0,0,122.46,97a105.2,105.2,0,0,0-11.86,42.87c-.48,5.45,1.73,24.69,3.44,30.25,4.69,14.73,13.12,27.08,24,37.8a104.26,104.26,0,0,0,8.51,7.28c.86,0,.95-.77,1.15-1.34a25,25,0,0,0,.86-3.74l1.93-14.35Z" transform="translate(-28.81 -23.37)"/><path class="cls-5" d="M154.14,219.37a13.16,13.16,0,0,1,2.39-5.84,6.08,6.08,0,0,1-2.68-2.49,17.85,17.85,0,0,1-1.42-3.15c-1.34-4-1.63-8.24-2-12.35v-2.49c-.48.39-.58,3.64-.58,4.12a96.83,96.83,0,0,1-1.72,12.92,11.55,11.55,0,0,1-1.54,5,2,2,0,0,0,.09.67c1.73,5.07,2.2,10.24,2.49,15.5v1.93c0,2.29-.09,1.81,1.81,2.58a8.28,8.28,0,0,1,2.4.95c.57,0,.67-.47.67-.86l-.29-3.16v-8.8a23.81,23.81,0,0,1,.38-4.51Z" transform="translate(-28.81 -23.37)"/></svg>