<svg id="A" xmlns="http://www.w3.org/2000/svg" viewBox="0 0 167.53 253.27"><defs><style>.cls-1{fill:#fff;}.cls-2{fill:#fa7a49;}.cls-3{fill:#00678c;fill-rule:evenodd;}</style></defs><path class="cls-1" d="M195,180.21c0-9-12.08-16.76-30.09-21.07C182.9,154.82,195,147,195,138.06c0-13.61-27.8-24.63-62.12-24.63s-62.12,11-62.12,24.63c0,8.95,12.08,16.76,30.09,21.08-18,4.31-30.09,12.12-30.09,21.07,0,9.16,12.62,17.13,31.31,21.37-18.74,4.25-31.4,12.22-31.4,21.39,0,13.61,27.82,24.63,62.13,24.63s62.12-11,62.12-24.63c0-9.15-12.62-17.12-31.31-21.37C182.33,197.36,195,189.38,195,180.21Z" transform="translate(-66.23 -23.37)"/><path class="cls-2" d="M199.32,135.14c0-16-29.78-29-66.53-29s-66.56,13-66.56,29v23.31c0,3.74,1.65,7.34,4.64,10.64-3,3.29-4.64,6.87-4.64,10.63V203c0,3.77,1.65,7.34,4.64,10.63-3,3.3-4.64,6.88-4.64,10.64v23.31c0,16,29.79,29,66.56,29s66.53-13,66.53-29V224.31c0-3.76-1.64-7.34-4.64-10.64,3-3.29,4.64-6.86,4.64-10.63V179.72c0-3.76-1.64-7.34-4.64-10.63,3-3.3,4.64-6.9,4.64-10.64Zm-66.53-20.63c30.57,0,52.18,9.52,57.1,17.39a6.26,6.26,0,0,1,1.06,3.24c0,5.87-11.87,13.9-31.44,18a137.66,137.66,0,0,1-53.46,0C86.48,149,74.61,141,74.61,135.14a5.48,5.48,0,0,1,.76-2.65C79.53,124.5,101.41,114.51,132.79,114.51ZM191,224.31c0,8.21-23.21,20.63-58.16,20.63s-58.18-12.42-58.18-20.63a5.48,5.48,0,0,1,.76-2.65A10.74,10.74,0,0,1,77.32,219c11.92,7.85,32.3,13,55.47,13s43.58-5.17,55.47-13a12.33,12.33,0,0,1,1.63,2A6.26,6.26,0,0,1,191,224.31Zm0-44.59a6.92,6.92,0,0,1-1.65,4.11c-.22.28-.48.56-.72.84a16.44,16.44,0,0,1-1.68,1.64,30.79,30.79,0,0,1-5.14,3.55,12,12,0,0,1-1.36.75l-.17.09c-.54.31-1.06.56-1.65.83s-1.15.56-1.76.81a80.12,80.12,0,0,1-12.06,4.14c-.56.17-1.14.3-1.73.44-1.15.28-2.32.56-3.54.82h0c-2.1.44-4.25.83-6.51,1.13-.89.17-1.81.29-2.73.4s-1.88.22-2.85.34c-.67.08-1.34.13-2,.19s-1.62.14-2.46.2-1.87.14-2.82.16c-1.17.08-2.37.11-3.57.14s-2.46,0-3.69,0-2.46,0-3.68,0-2.4-.06-3.57-.14c-1,0-1.88-.08-2.77-.14l-2.51-.22c-.73-.06-1.45-.14-2.15-.19l-2.77-.34c-.86-.11-1.67-.23-2.51-.36q-3.51-.51-6.73-1.17h0c-1.22-.26-2.4-.54-3.54-.82-.59-.14-1.17-.27-1.73-.44a82,82,0,0,1-11-3.66c-.8-.33-1.58-.7-2.31-1-.5-.23-1-.45-1.43-.7l-1-.51a20.84,20.84,0,0,1-2.14-1.2,19.42,19.42,0,0,1-1.93-1.22,21.57,21.57,0,0,1-4.33-3.74,13.62,13.62,0,0,1-.89-1.15,6.37,6.37,0,0,1-1.26-3.55,5.51,5.51,0,0,1,.76-2.65,10.89,10.89,0,0,1,1.95-2.62c11.92,7.84,32.3,13,55.47,13s43.58-5.17,55.47-13a12.33,12.33,0,0,1,1.63,2A6.2,6.2,0,0,1,191,179.72Z" transform="translate(-66.23 -23.37)"/><path class="cls-3" d="M223.06,125.78c-7.38-.21-13.1.55-17.9,2.57-1.39.55-3.6.55-3.78,2.29.73.73.82,1.92,1.47,2.94a21.6,21.6,0,0,0,4.8,5.59l5.9,4.22c3.6,2.2,7.66,3.48,11.17,5.68,2,1.29,4.06,2.94,6.09,4.32,1,.73,1.66,1.93,3,2.38v-.28c-.65-.82-.84-2-1.48-2.93l-2.77-2.66a43.24,43.24,0,0,0-9.6-9.26c-2.95-2-9.41-4.77-10.61-8.16l-.18-.21a39.75,39.75,0,0,0,6.37-1.47c3.14-.82,6-.64,9.22-1.46l4.43-1.29v-.82c-1.66-1.65-2.86-3.85-4.61-5.41a122.91,122.91,0,0,0-15.23-11.28c-2.86-1.84-6.55-3-9.6-4.59-1.11-.55-3-.82-3.6-1.74-1.66-2-2.58-4.68-3.78-7.06l-7.57-16c-1.66-3.58-2.68-7.16-4.7-10.46-9.51-15.59-19.85-25-35.72-34.3-3.42-1.93-7.48-2.76-11.79-3.76l-6.93-.37c-1.48-.65-3-2.39-4.24-3.21-5.26-3.31-18.83-10.46-22.71-1-2.49,6,3.69,11.83,5.79,14.86a42.46,42.46,0,0,1,4.71,6.87c.62,1.56.83,3.22,1.48,4.87,1.47,4,2.86,8.53,4.8,12.29a45.8,45.8,0,0,0,3.41,5.69c.74,1,2,1.46,2.31,3.12-1.3,1.83-1.39,4.58-2.12,6.88-3.33,10.36-2,23.2,2.67,30.83,1.48,2.29,5,7.34,9.69,5.41,4.16-1.65,3.23-6.88,4.43-11.46.28-1.1.09-1.84.65-2.57v.2l3.78,7.62c2.86,4.49,7.85,9.17,12,12.29,2.21,1.65,4,4.49,6.73,5.5v-.28h-.18a10.09,10.09,0,0,0-2.12-1.83,44.8,44.8,0,0,1-4.8-5.5,118.65,118.65,0,0,1-10.34-16.69c-1.47-2.85-2.77-6-4-8.81-.56-1.1-.56-2.75-1.48-3.3-1.39,2-3.42,3.76-4.44,6.24-1.75,3.94-1.93,8.8-2.58,13.85-.37.09-.2,0-.37.2-2.95-.73-4-3.76-5.07-6.33-2.77-6.51-3.23-17-.83-24.49.64-1.92,3.41-8,2.31-9.81-.56-1.74-2.4-2.75-3.42-4.13a36.56,36.56,0,0,1-3.32-5.87c-2.21-5.14-3.32-10.82-5.72-16a49.17,49.17,0,0,0-4.62-7.06c-1.75-2.48-3.69-4.22-5.07-7.15-.47-1-1.11-2.66-.37-3.76a1.45,1.45,0,0,1,1.29-1.2c1.2-1,4.61.28,5.81.83A47,47,0,0,1,118.86,34c1.29.92,2.68,2.66,4.34,3.12h1.94c3,.64,6.27.21,9,1a59.11,59.11,0,0,1,13.29,6.33,81.49,81.49,0,0,1,28.79,31.37c1.11,2.11,1.57,4,2.59,6.24,1.94,4.49,4.34,9.08,6.27,13.48s3.79,8.72,6.56,12.3c1.38,1.92,6.92,2.93,9.41,3.94,1.85.82,4.7,1.56,6.37,2.57,3.13,1.92,6.27,4.13,9.22,6.23,1.48,1.1,6.1,3.4,6.37,5.23ZM128.94,46.07a15.1,15.1,0,0,0-3.78.46v.21h.18c.74,1.47,2,2.47,3,3.76l2.12,4.4.18-.2c1.3-.92,2-2.39,2-4.59a19,19,0,0,1-1.11-1.92c-.56-.92-1.76-1.38-2.5-2.11Z" transform="translate(-66.23 -23.37)"/></svg>