<svg id="A" xmlns="http://www.w3.org/2000/svg" xmlns:xlink="http://www.w3.org/1999/xlink" viewBox="0 0 224.63 253.27"><defs><style>.cls-1{fill:url(#Degradado_sin_nombre_4);}</style><linearGradient id="Degradado_sin_nombre_4" x1="37.69" y1="150" x2="454.38" y2="150" gradientUnits="userSpaceOnUse"><stop offset="0" stop-color="#6bbf47"/><stop offset="1" stop-color="#3e863d"/></linearGradient></defs><path class="cls-1" d="M150,23.37a19.48,19.48,0,0,0-9.67,2.36L47.36,79.41a19.6,19.6,0,0,0-9.67,17V203.55a19.58,19.58,0,0,0,9.67,17l24.27,14c11.8,5.82,16.15,5.72,21.52,5.72,17.46,0,27.43-10.59,27.43-29V105.5a2.66,2.66,0,0,0-2.77-2.57H106.17a2.66,2.66,0,0,0-2.76,2.57V211.28c0,8.16-8.51,16.37-22.3,9.47L55.87,206a2.83,2.83,0,0,1-1.58-2.37V96.42a3.14,3.14,0,0,1,1.58-2.57l92.76-53.48a2.73,2.73,0,0,1,2.76,0l92.76,53.48a3.16,3.16,0,0,1,1.58,2.57V203.58a3,3,0,0,1-1.38,2.57l-93,53.48a2.82,2.82,0,0,1-2.76,0l-23.88-14.2a2.44,2.44,0,0,0-2.36,0,61.76,61.76,0,0,1-14,6.31c-1.52.53-3.84,1.36.79,3.95l31.19,18.38a19.12,19.12,0,0,0,9.67,2.56,18.84,18.84,0,0,0,9.67-2.56l92.95-53.49a19.62,19.62,0,0,0,9.67-17V96.44a19.59,19.59,0,0,0-9.67-17L159.69,25.79A19.37,19.37,0,0,0,150,23.43Zm24.87,76.57c-26.47,0-42.23,11.27-42.23,30,0,20.3,15.64,25.91,41,28.42,30.39,3,32.76,7.44,32.76,13.42,0,10.38-8.27,14.8-27.83,14.8-24.56,0-30-6.13-31.77-18.38a2.69,2.69,0,0,0-2.57-2.37H132.19a2.84,2.84,0,0,0-2.76,2.77c0,15.64,8.51,34.14,49.14,34.14C208,202.74,225,191.22,225,171c0-20-13.7-25.43-42.23-29.21-28.8-3.84-31.58-5.68-31.58-12.43,0-5.58,2.33-13,23.69-13,19.07,0,26.12,4.11,29,17a2.71,2.71,0,0,0,2.56,2.2h12.07a3,3,0,0,0,2-1,2.62,2.62,0,0,0,.79-2c-1.87-22.14-16.64-32.56-46.38-32.56Z" transform="translate(-37.69 -23.37)"/></svg>