<svg id="A" xmlns="http://www.w3.org/2000/svg" viewBox="0 0 260.48 253.27"><defs><style>.cls-1{fill:#001833;}.cls-2{fill:#2da9ff;}</style></defs><rect class="cls-1" width="260.48" height="253.27" rx="9.74"/><path class="cls-2" d="M77.49,96.84a191,191,0,0,1,29.11-2.09c15,0,26,3.21,33,9,6.45,5.14,10.28,13,10.28,22.62,0,9.78-3.14,17.48-9.07,23.09-8,7.86-21.09,11.87-35.9,11.87a56.12,56.12,0,0,1-12.21-1v43.3H77.49ZM92.65,149a55.31,55.31,0,0,0,12.55,1.12c18.31,0,29.46-8.18,29.46-23.09,0-14.28-11-21.17-27.71-21.17a69.23,69.23,0,0,0-14.3,1.12Z" transform="translate(-19.76 -23.37)"/><path class="cls-2" d="M97.36,208.35H72.78V92.79l4-.61A197.59,197.59,0,0,1,106.6,90c15.79,0,27.89,3.39,36,10.06,7.71,6.13,12,15.48,12,26.25,0,11-3.54,19.89-10.54,26.51-8.63,8.46-22.56,13.16-39.14,13.16-2.47,0-5-.05-7.5-.24ZM82.2,198.93h5.74v-44.5l5.77,1.32a53.27,53.27,0,0,0,11.15.84c14.1,0,25.68-3.73,32.61-10.52,5.09-4.82,7.65-11.44,7.65-19.72,0-8-2.94-14.5-8.51-18.93-6.31-5.23-16.66-8-30-8a195,195,0,0,0-24.4,1.47Zm23-44.14a59.07,59.07,0,0,1-13.66-1.25l-3.6-.88V103.25l3.59-.88c3.26-.8,8.88-1.26,15.42-1.26,20.3,0,32.43,9.67,32.43,25.88C139.38,144.4,126.6,154.79,105.2,154.79ZM97.36,145a67.76,67.76,0,0,0,7.84.38C114.45,145.37,130,143,130,127c0-13.6-12.51-16.46-23-16.46a93.27,93.27,0,0,0-9.59.43Z" transform="translate(-19.76 -23.37)"/><path class="cls-2" d="M171.09,189.21a42.67,42.67,0,0,0,20.22,5.61c11.16,0,16.38-5.13,16.38-11.54,0-6.74-4.36-10.43-15.69-14.28-15.16-5-22.31-12.67-22.31-22,0-12.51,11-22.77,29.11-22.77a45.08,45.08,0,0,1,20.75,4.81l-3.84,10.27a34.86,34.86,0,0,0-17.26-4.49c-9.06,0-14.11,4.81-14.11,10.58,0,6.41,5,9.3,16,13.15,14.65,5.13,22.14,11.87,22.14,23.41,0,13.63-11.51,23.26-31.55,23.26-9.24,0-17.78-2.09-23.71-5.3Z" transform="translate(-19.76 -23.37)"/><path class="cls-2" d="M191,210c-9.62,0-19.07-2.14-26-5.86l-3.55-1.93,7.12-20,4.94,3a38.22,38.22,0,0,0,17.79,4.94c3.51,0,11.67-.66,11.67-6.83,0-3.16-.92-5.88-12.49-9.82C169.42,166.55,165,155.27,165,147c0-15.92,14.23-27.48,33.82-27.48,8.34,0,16.73,2,23,5.39l3.59,2-7.22,19.32-4.83-2.8a30.28,30.28,0,0,0-14.89-3.85c-5.62,0-9.4,2.36-9.4,5.87,0,2.53.89,4.5,12.88,8.7,11.77,4.13,25.29,11,25.29,27.86C227.22,199,213,210,191,210Zm-17.82-12.48A50.72,50.72,0,0,0,191,200.54c16.56,0,26.84-7.11,26.84-18.55,0-6.39-2.3-13.12-19-19-10.5-3.68-19.19-7.55-19.19-17.6,0-7.37,5.9-15.29,18.83-15.29a40.45,40.45,0,0,1,14.65,2.73l.49-1.33A43.44,43.44,0,0,0,198.8,129c-14.36,0-24.4,7.43-24.4,18.06,0,7.46,6.42,13.35,19.07,17.5,9.18,3.12,18.93,7.38,18.93,18.75,0,7.5-5.52,16.25-21.09,16.25a46.85,46.85,0,0,1-17.57-3.74Z" transform="translate(-19.76 -23.37)"/></svg>