<svg id="A" xmlns="http://www.w3.org/2000/svg" viewBox="0 0 281.54 253.27"><defs><style>.cls-1{fill:#149eca;}</style></defs><path class="cls-1" d="M290.77,150c0-21.12-19.73-39.64-51.13-51.77q.69-4.41,1.13-8.69c3.06-30.27-4.18-52.09-20.39-61.45S181.66,23.38,157,41.16c-2.33,1.68-4.66,3.47-7,5.34-2.32-1.87-4.65-3.66-7-5.34-24.68-17.78-47.2-22.43-63.4-13.07S56.17,59.27,59.23,89.54q.44,4.27,1.13,8.69C29,110.36,9.23,128.88,9.23,150S29,189.65,60.36,201.77q-.69,4.41-1.13,8.69c-3.06,30.27,4.18,52.09,20.39,61.45A36.26,36.26,0,0,0,98,276.63c13.24,0,28.64-6,45-17.79,2.33-1.68,4.66-3.47,7-5.34,2.32,1.87,4.65,3.66,7,5.34,16.35,11.78,31.75,17.79,45,17.79a36.26,36.26,0,0,0,18.41-4.72c16.21-9.36,23.45-31.18,20.39-61.45q-.44-4.28-1.13-8.69C271,189.65,290.77,171.12,290.77,150ZM164,51c20.3-14.63,38.63-19.15,50.3-12.41s16.92,24.87,14.4,49.76c-.19,1.94-.44,3.9-.72,5.88a238.53,238.53,0,0,0-40.86-8.6,240.32,240.32,0,0,0-27.87-31C160.87,53.31,162.46,52.11,164,51Zm33.22,126.32A290.76,290.76,0,0,1,180.59,203a290.63,290.63,0,0,1-30.59,1.6,290.63,290.63,0,0,1-30.59-1.6,290.76,290.76,0,0,1-16.67-25.69A289.08,289.08,0,0,1,88.82,150a294.88,294.88,0,0,1,30.59-53,295.06,295.06,0,0,1,61.18,0,290.76,290.76,0,0,1,16.67,25.69A289.08,289.08,0,0,1,211.18,150,289.08,289.08,0,0,1,197.26,177.29Zm20.13-12a214.16,214.16,0,0,1,8.45,28.54,214.32,214.32,0,0,1-28.94,7c3.75-5.6,7.37-11.42,10.83-17.41S214.41,171.3,217.39,165.25ZM150,237.58A215.9,215.9,0,0,1,129.51,216q10,.66,20.49.67t20.49-.67A215.9,215.9,0,0,1,150,237.58Zm-46.9-36.84a214.32,214.32,0,0,1-28.94-7,214.16,214.16,0,0,1,8.45-28.54q4.47,9.08,9.66,18.08C95.73,189.32,99.35,195.14,103.1,200.74Zm-20.49-66a214.16,214.16,0,0,1-8.45-28.54,214.32,214.32,0,0,1,28.94-6.95q-5.62,8.42-10.83,17.41T82.61,134.75ZM150,62.42A217,217,0,0,1,170.49,84q-10-.66-20.49-.67T129.51,84A217,217,0,0,1,150,62.42Zm57.73,54.25q-5.19-9-10.83-17.41a214.32,214.32,0,0,1,28.94,6.95,214.16,214.16,0,0,1-8.45,28.54Q212.92,125.67,207.73,116.67ZM71.26,88.32c-2.52-24.89,2.73-43,14.4-49.76A24.36,24.36,0,0,1,98,35.5c10.64,0,23.82,5.29,38,15.47,1.58,1.14,3.17,2.34,4.75,3.58A240.32,240.32,0,0,0,112.84,85.6,238.53,238.53,0,0,0,72,94.2C71.7,92.22,71.45,90.26,71.26,88.32Zm-14.05,99C34.4,177.09,21.32,163.47,21.32,150s13.08-27.09,35.89-37.35q2.68-1.2,5.49-2.33a238.83,238.83,0,0,0,13,39.68,238.83,238.83,0,0,0-13,39.68C60.83,188.93,59,188.16,57.21,187.35ZM136,249C121.83,259.21,108.65,264.5,98,264.5a24.33,24.33,0,0,1-12.35-3.06c-11.67-6.73-16.92-24.87-14.4-49.76.19-1.94.44-3.9.72-5.88a237.59,237.59,0,0,0,40.86,8.6,239.66,239.66,0,0,0,27.87,31C139.13,246.69,137.54,247.89,136,249Zm92.78-37.35c2.52,24.89-2.73,43-14.4,49.76s-30,2.22-50.3-12.41c-1.58-1.14-3.17-2.34-4.75-3.58a239.66,239.66,0,0,0,27.87-31A237.59,237.59,0,0,0,228,205.8C228.3,207.78,228.55,209.74,228.74,211.68Zm14-24.33c-1.79.81-3.62,1.58-5.49,2.33a238.83,238.83,0,0,0-13-39.68,238.83,238.83,0,0,0,13-39.68q2.8,1.13,5.49,2.33c22.81,10.26,35.89,23.88,35.89,37.35S265.6,177.09,242.79,187.35Z" transform="translate(-9.23 -23.37)"/><circle class="cls-1" cx="150" cy="150" r="27.44" transform="translate(-65.69 77.89) rotate(-31.72)"/></svg>