<svg id="Capa_1" data-name="Capa 1" xmlns="http://www.w3.org/2000/svg" viewBox="0 0 100 100"><defs><style>.cls-1{fill:#fff;}</style></defs><path class="cls-1" d="M77.48,22.51c1.52,1.52,1.89,3.62.83,4.68L24.05,81.45c-1.06,1.06-3.15.68-4.67-.84s-1.89-3.61-.83-4.67L72.81,21.68C73.87,20.62,76,21,77.48,22.51Z"/><path class="cls-1" d="M22.46,83.55a6,6,0,0,1-4.14-1.88c-2.14-2.13-2.5-5.12-.83-6.79L71.75,20.62c1.67-1.67,4.65-1.3,6.79.83s2.5,5.12.83,6.8L25.11,82.51A3.67,3.67,0,0,1,22.46,83.55Zm51.94-61a.76.76,0,0,0-.53.16L19.61,77c-.34.34-.19,1.54.83,2.55s2.21,1.18,2.55.84L77.25,26.13c.34-.35.19-1.54-.83-2.55h0A3.06,3.06,0,0,0,74.4,22.58Z"/><path class="cls-1" d="M75.46,86a5.81,5.81,0,0,1-3.73-5.11l2.5-55.08-55.08,2.5a5.79,5.79,0,0,1-5.1-3.73c-.83-2.15.13-4,2.1-4.06l60.73-2.76a5.26,5.26,0,0,1,3.73,1.67,5.22,5.22,0,0,1,1.67,3.73L79.53,83.84a2.55,2.55,0,0,1-.7,1.7A3.09,3.09,0,0,1,75.46,86Z"/><path class="cls-1" d="M77,87.75a5.73,5.73,0,0,1-2-.4h0c-2.75-1.06-4.81-3.95-4.68-6.58l2.42-53.43L19.22,29.76a7.29,7.29,0,0,1-6.57-4.69,4.79,4.79,0,0,1,.26-4.36A3.87,3.87,0,0,1,16.08,19l60.73-2.75a6.67,6.67,0,0,1,4.86,2.1,6.74,6.74,0,0,1,2.11,4.86L81,83.91a3.91,3.91,0,0,1-4,3.84Zm-1-3.21a1.75,1.75,0,0,0,1.77-.06,1.07,1.07,0,0,0,.26-.72L80.78,23A4.27,4.27,0,0,0,77,19.21L16.22,22a.93.93,0,0,0-.79.39,1.89,1.89,0,0,0,0,1.65,4.34,4.34,0,0,0,3.63,2.76L75.8,24.19,73.23,80.91A4.32,4.32,0,0,0,76,84.54Z"/></svg>