<svg id="Capa_2" data-name="Capa 2" xmlns="http://www.w3.org/2000/svg" viewBox="0 0 1000 1000"><defs><style>.cls-1{fill:#fff;}</style></defs><g id="B"><path class="cls-1" d="M374.19,808.55a34,34,0,0,1-8,1.29,53.51,53.51,0,0,1-1.3,10.49,54,54,0,0,1-1.29-10.49,33.84,33.84,0,0,1-8-1.29,33.55,33.55,0,0,1,8-1.28,54,54,0,0,1,1.29-10.49,53.51,53.51,0,0,1,1.3,10.49A33.68,33.68,0,0,1,374.19,808.55Z"/><path class="cls-1" d="M159.53,587.6a32,32,0,0,1-7.52,1.22,50.18,50.18,0,0,1-1.23,9.9,50.67,50.67,0,0,1-1.22-9.9A32,32,0,0,1,142,587.6a31.69,31.69,0,0,1,7.53-1.21,50.86,50.86,0,0,1,1.22-9.91,50.36,50.36,0,0,1,1.23,9.91A31.66,31.66,0,0,1,159.53,587.6Z"/><path class="cls-1" d="M738.43,786.86a45.5,45.5,0,0,1-10.78,1.74,72.59,72.59,0,0,1-1.75,14.2,72.1,72.1,0,0,1-1.76-14.2,45.63,45.63,0,0,1-10.78-1.74,46.25,46.25,0,0,1,10.78-1.74,72.07,72.07,0,0,1,1.76-14.19,72.56,72.56,0,0,1,1.75,14.19A46.11,46.11,0,0,1,738.43,786.86Z"/><path class="cls-1" d="M861.4,571.67a45.5,45.5,0,0,1-10.78,1.74,72.56,72.56,0,0,1-1.75,14.19,72.07,72.07,0,0,1-1.76-14.19,45.63,45.63,0,0,1-10.78-1.74,45.63,45.63,0,0,1,10.78-1.74,72.07,72.07,0,0,1,1.76-14.19,72.56,72.56,0,0,1,1.75,14.19A45.5,45.5,0,0,1,861.4,571.67Z"/><path class="cls-1" d="M705.58,268.63a38.87,38.87,0,0,1-9.08,1.47,61.13,61.13,0,0,1-1.48,12,61.13,61.13,0,0,1-1.48-12,38.73,38.73,0,0,1-9.08-1.47,38.44,38.44,0,0,1,9.08-1.46,61,61,0,0,1,1.48-12,61,61,0,0,1,1.48,12A38.57,38.57,0,0,1,705.58,268.63Z"/><path class="cls-1" d="M556.28,174.84a38.71,38.71,0,0,1-9.07,1.47,61.55,61.55,0,0,1-1.49,12,62.05,62.05,0,0,1-1.48-12,38.87,38.87,0,0,1-9.08-1.47,38.57,38.57,0,0,1,9.08-1.46,61.9,61.9,0,0,1,1.48-12,61.4,61.4,0,0,1,1.49,12A38.42,38.42,0,0,1,556.28,174.84Z"/><path class="cls-1" d="M227.22,268.63A35,35,0,0,1,219,270a55.59,55.59,0,0,1-1.34,10.8,55.59,55.59,0,0,1-1.34-10.8,35.14,35.14,0,0,1-8.2-1.33,34.85,34.85,0,0,1,8.2-1.32,55.59,55.59,0,0,1,1.34-10.8,55.59,55.59,0,0,1,1.34,10.8A34.71,34.71,0,0,1,227.22,268.63Z"/></g></svg>