<svg id="Capa_2" data-name="Capa 2" xmlns="http://www.w3.org/2000/svg" viewBox="0 0 1000 1000"><defs><style>.cls-1{fill:#fff;}</style></defs><g id="A"><path class="cls-1" d="M733.12,318.2a44.67,44.67,0,0,1-10.46,1.69,70.74,70.74,0,0,1-1.7,13.76,70.24,70.24,0,0,1-1.71-13.76,44.51,44.51,0,0,1-10.45-1.69,43.9,43.9,0,0,1,10.45-1.69A70.24,70.24,0,0,1,721,302.75a70.74,70.74,0,0,1,1.7,13.76A44.05,44.05,0,0,1,733.12,318.2Z"/><path class="cls-1" d="M330.29,200.51a32.59,32.59,0,0,1-7.68,1.24,52.16,52.16,0,0,1-1.25,10.11,51.25,51.25,0,0,1-1.25-10.11,32.59,32.59,0,0,1-7.68-1.24,32.59,32.59,0,0,1,7.68-1.24,51.21,51.21,0,0,1,1.25-10.1,52.13,52.13,0,0,1,1.25,10.1A32.59,32.59,0,0,1,330.29,200.51Z"/><path class="cls-1" d="M151.79,483.57a36,36,0,0,1-8.39,1.35A56.44,56.44,0,0,1,142,496a56.44,56.44,0,0,1-1.37-11.05,36,36,0,0,1-8.39-1.35,35.65,35.65,0,0,1,8.39-1.36,56.6,56.6,0,0,1,1.37-11,56.6,56.6,0,0,1,1.37,11A35.65,35.65,0,0,1,151.79,483.57Z"/><path class="cls-1" d="M820.83,651.74a36.33,36.33,0,0,1-8.59,1.39,58.59,58.59,0,0,1-1.4,11.32,58.09,58.09,0,0,1-1.41-11.32,36.33,36.33,0,0,1-8.59-1.39,36.66,36.66,0,0,1,8.59-1.38,58.06,58.06,0,0,1,1.41-11.31,58.56,58.56,0,0,1,1.4,11.31A36.66,36.66,0,0,1,820.83,651.74Z"/></g></svg>