<svg id="Capa_2" data-name="Capa 2" xmlns="http://www.w3.org/2000/svg" viewBox="0 0 1000 1000"><defs><style>.cls-1{fill:#fff;}</style></defs><g id="C"><path class="cls-1" d="M535.15,820.32a38.1,38.1,0,0,1-9.07,1.47,60.76,60.76,0,0,1-1.48,11.94,61.68,61.68,0,0,1-1.48-11.94,38.07,38.07,0,0,1-9.06-1.47,38.4,38.4,0,0,1,9.06-1.46,61.83,61.83,0,0,1,1.48-11.94,60.91,60.91,0,0,1,1.48,11.94A38.42,38.42,0,0,1,535.15,820.32Z"/><path class="cls-1" d="M800.84,725.61a30.88,30.88,0,0,1-7.22,1.16,48.82,48.82,0,0,1-1.18,9.52,48.82,48.82,0,0,1-1.18-9.52,31,31,0,0,1-7.23-1.16,30.71,30.71,0,0,1,7.23-1.17,48.79,48.79,0,0,1,1.18-9.51,48.79,48.79,0,0,1,1.18,9.51A30.55,30.55,0,0,1,800.84,725.61Z"/><path class="cls-1" d="M167.94,383.24a30.57,30.57,0,0,1-7.23,1.17,48.79,48.79,0,0,1-1.18,9.51,48.79,48.79,0,0,1-1.18-9.51,30.55,30.55,0,0,1-7.22-1.17,30.55,30.55,0,0,1,7.22-1.17,48.79,48.79,0,0,1,1.18-9.51,48.79,48.79,0,0,1,1.18,9.51A30.57,30.57,0,0,1,167.94,383.24Z"/><path class="cls-1" d="M830.93,383.24a36.76,36.76,0,0,1-8.69,1.4,58.48,58.48,0,0,1-1.41,11.44,58.9,58.9,0,0,1-1.42-11.44,36.61,36.61,0,0,1-8.68-1.4,36.61,36.61,0,0,1,8.68-1.4,58.71,58.71,0,0,1,1.42-11.43,58.29,58.29,0,0,1,1.41,11.43A36.76,36.76,0,0,1,830.93,383.24Z"/><path class="cls-1" d="M247.42,702.09a36.61,36.61,0,0,1-8.68,1.4,58.9,58.9,0,0,1-1.42,11.44,58.9,58.9,0,0,1-1.42-11.44,36.74,36.74,0,0,1-8.68-1.4,36.74,36.74,0,0,1,8.68-1.4,58.9,58.9,0,0,1,1.42-11.44,58.9,58.9,0,0,1,1.42,11.44A36.61,36.61,0,0,1,247.42,702.09Z"/><path class="cls-1" d="M660.42,255.21a36.76,36.76,0,0,1-8.69,1.4,58.33,58.33,0,0,1-1.41,11.44,58.75,58.75,0,0,1-1.42-11.44,36.61,36.61,0,0,1-8.68-1.4,36.61,36.61,0,0,1,8.68-1.4,58.71,58.71,0,0,1,1.42-11.43,58.29,58.29,0,0,1,1.41,11.43A36.76,36.76,0,0,1,660.42,255.21Z"/><path class="cls-1" d="M448.69,187.68a36.61,36.61,0,0,1-8.68,1.4,58.71,58.71,0,0,1-1.42,11.43,58.29,58.29,0,0,1-1.41-11.43,36.76,36.76,0,0,1-8.69-1.4,37.05,37.05,0,0,1,8.69-1.41,58.44,58.44,0,0,1,1.41-11.43A58.87,58.87,0,0,1,440,186.27,36.9,36.9,0,0,1,448.69,187.68Z"/></g></svg>